<?xml version="1.0" encoding="UTF-8" standalone="no"?>
<svg width="47px" height="64px" viewBox="0 0 47 64" version="1.1" xmlns="http://www.w3.org/2000/svg" xmlns:xlink="http://www.w3.org/1999/xlink">
    <!-- Generator: Sketch 49.1 (51147) - http://www.bohemiancoding.com/sketch -->
    <title>noun_897228_cc</title>
    <desc>Created with Sketch.</desc>
    <defs></defs>
    <g id="Page-1" stroke="none" stroke-width="1" fill="none" fill-rule="evenodd">
        <g id="Ambassador-Features" transform="translate(-327.000000, -479.000000)" fill="#F9634E" fill-rule="nonzero">
            <g id="Group-7" transform="translate(180.000000, 442.000000)">
                <g id="noun_897228_cc" transform="translate(147.000000, 37.000000)">
                    <path d="M42.1627674,18.0099663 C42.1997805,9.11478435 35.51188,1.53717357 26.4475621,0.204122991 C17.3832441,-1.12892759 8.68140038,4.18537913 6,12.6916623 L8.61731283,13.4761122 C10.9119911,6.25458663 18.3036079,1.74604769 26.0054935,2.870139 C33.7073792,3.99423031 39.4048881,10.413129 39.4084225,17.970079 L39.4084225,29.4310241 L21.2242647,29.4310241 L21.2242647,32.0901761 L44.2593583,32.0901761 L44.2593583,61.340848 L40.7924465,61.340848 L40.7924465,64 L47,64 L47,29.4310241 L42.1627674,29.4310241 L42.1627674,18.0099663 Z" id="Shape"></path>
                    <path d="M33,26 L33,18.6356275 C32.9649741,13.3296279 28.955982,9.03749963 24,9 L24,11.7530364 C27.550402,11.7530364 30.4285714,14.8344774 30.4285714,18.6356275 L30.4285714,26 L33,26 Z" id="Shape"></path>
                    <path d="M2.64439805,30.1853221 L15.8663883,30.1853221 L15.8663883,16.8933474 C15.8537052,14.5938083 17.0409054,12.4534693 19,11.2439282 L17.598469,9 C14.8565587,10.6978884 13.1982769,13.6987419 13.2219903,16.9197466 L13.2219903,27.5718057 L7.3249826,27.5718057 L7.3249826,16.1673706 C7.32525915,15.6073236 7.35615642,15.0477091 7.41753653,14.4910243 L4.77313848,14.2006336 C4.7021174,14.8538075 4.6668064,15.5103601 4.66736256,16.1673706 L4.66736256,27.5454065 L0,27.5454065 L0,34 L2.64439805,34 L2.64439805,30.1853221 Z" id="Shape"></path>
                    <polygon id="Shape" points="2.73417722 39 0 39 0 64 27 64 27 61.2766885 2.73417722 61.2766885"></polygon>
                    <rect id="Rectangle-path" x="31" y="61" width="5" height="3"></rect>
                </g>
            </g>
        </g>
    </g>
</svg>