<svg xmlns="http://www.w3.org/2000/svg" viewBox="0 0 24.44 18.8"><path class="cls-1" d="M12.22,0A12.23,12.23,0,0,0,1.78,18.58a.47.47,0,0,0,.65.15.46.46,0,0,0,.15-.64,11.28,11.28,0,1,1,19.28,0,.46.46,0,0,0,.15.64.45.45,0,0,0,.25.07.47.47,0,0,0,.4-.22A12.23,12.23,0,0,0,12.22,0Zm7.66,6.25-6.37,6.36a2.28,2.28,0,0,0-1.29-.39,2.35,2.35,0,0,0-2.35,2.35,2.28,2.28,0,0,0,.39,1.29L8.13,18a.45.45,0,0,0,0,.66.46.46,0,0,0,.66,0l2.14-2.13a2.35,2.35,0,0,0,3.64-2,2.28,2.28,0,0,0-.39-1.29l6.36-6.37a.47.47,0,1,0-.66-.66ZM12.22,16a1.41,1.41,0,1,1,1.41-1.41A1.41,1.41,0,0,1,12.22,16Zm0-12.22A8.38,8.38,0,0,1,17.9,6a.47.47,0,1,0,.64-.7h0A9.4,9.4,0,0,0,4.19,17.11a.48.48,0,0,0,.4.23.55.55,0,0,0,.25-.07A.47.47,0,0,0,5,16.62,8.47,8.47,0,0,1,12.22,3.76Z"/></svg>