<svg xmlns="http://www.w3.org/2000/svg" viewBox="0 0 23.78 23.37"><path class="cls-1" d="M23.16,13.94H20a9.24,9.24,0,0,0-1.73-4.85l2.29-2.28a.62.62,0,0,0-.88-.88L17.43,8.14a8.86,8.86,0,0,0-1.09-.94,3.35,3.35,0,0,0,.1-.87,4.57,4.57,0,0,0-2.37-4,4,4,0,0,1,1.68-1.12.62.62,0,0,0,.4-.78.61.61,0,0,0-.78-.4,5.27,5.27,0,0,0-2.53,1.85,4.56,4.56,0,0,0-1.9,0A5.31,5.31,0,0,0,8.41,0a.62.62,0,0,0-.78.4A.62.62,0,0,0,8,1.21,3.92,3.92,0,0,1,9.71,2.33a4.56,4.56,0,0,0-2.38,4,3.34,3.34,0,0,0,.11.87,8.18,8.18,0,0,0-1.09.94L4.14,5.93a.62.62,0,1,0-.88.88L5.55,9.09a9.33,9.33,0,0,0-1.74,4.85H.62a.62.62,0,0,0,0,1.24h3.2A9.1,9.1,0,0,0,5.55,20L3.26,22.31a.62.62,0,0,0,0,.87.6.6,0,0,0,.88,0L6.35,21a7.75,7.75,0,0,0,5.54,2.4A7.75,7.75,0,0,0,17.43,21l2.21,2.21a.63.63,0,0,0,.44.19.65.65,0,0,0,.44-.19.62.62,0,0,0,0-.87L18.23,20A9.1,9.1,0,0,0,20,15.18h3.2a.62.62,0,0,0,0-1.24ZM11.89,3a3.32,3.32,0,0,1,3.32,3.31,1.37,1.37,0,0,1-.3,1c-.42.42-1.5.41-2.63.41H11.5c-1.14,0-2.21,0-2.63-.41a1.37,1.37,0,0,1-.3-1A3.32,3.32,0,0,1,11.89,3ZM5,14.56a7.83,7.83,0,0,1,3-6.29C8.82,9,10,9,11.27,9V22.09C7.78,21.75,5,18.5,5,14.56Zm7.48,7.53V9h.13a4.51,4.51,0,0,0,3.07-.71,7.85,7.85,0,0,1,3,6.29C18.75,18.5,16,21.75,12.51,22.09Z"/></svg>