<svg xmlns="http://www.w3.org/2000/svg" viewBox="0 0 16.84 24.48"><title>documents</title><g id="Layer_2" data-name="Layer 2"><g id="Layer_1-2" data-name="Layer 1"><path class="cls-1" d="M16.52,3,5.24,0a.45.45,0,0,0-.37.08.42.42,0,0,0-.16.33v1.8L2.84,1.74a.41.41,0,0,0-.37.07.42.42,0,0,0-.16.33V4.4L.53,3.94A.41.41,0,0,0,.16,4,.42.42,0,0,0,0,4.34V21.12a.42.42,0,0,0,.31.4L11.6,24.46l.11,0a.38.38,0,0,0,.25-.09.43.43,0,0,0,.17-.33V21.8l1.78.46.11,0a.38.38,0,0,0,.25-.09.4.4,0,0,0,.17-.33V20.05l1.87.49.1,0a.39.39,0,0,0,.26-.09.43.43,0,0,0,.17-.33V3.36A.43.43,0,0,0,16.52,3ZM11.28,23.51.84,20.79V4.89L11.28,7.61Zm2.32-2.2-1.47-.38V7.28a.42.42,0,0,0-.32-.4L3.15,4.62V2.69L13.6,5.41ZM16,19.59l-1.55-.4V5.08a.42.42,0,0,0-.32-.4L5.55,2.44V1L16,3.69Z"/><path class="cls-1" d="M2.39,8.94,9.51,11a.2.2,0,0,0,.11,0,.44.44,0,0,0,.41-.3.43.43,0,0,0-.29-.52L2.62,8.13a.42.42,0,1,0-.23.81Z"/><path class="cls-1" d="M2.39,12.16l7.12,2.07h.11a.44.44,0,0,0,.41-.3.43.43,0,0,0-.29-.52L2.62,11.35a.43.43,0,0,0-.52.29A.42.42,0,0,0,2.39,12.16Z"/><path class="cls-1" d="M2.39,15.38l7.12,2.07.11,0a.42.42,0,0,0,.12-.83L2.62,14.58a.41.41,0,0,0-.52.28A.42.42,0,0,0,2.39,15.38Z"/><path class="cls-1" d="M2.39,18.6l7.12,2.07.11,0a.42.42,0,0,0,.12-.83L2.62,17.8a.42.42,0,1,0-.23.8Z"/></g></g></svg>