<svg xmlns="http://www.w3.org/2000/svg" viewBox="0 0 21.1 22.5"><path class="cls-1" d="M20.36,2,19.23.78A2.87,2.87,0,0,0,17.39,0H3.72A2.89,2.89,0,0,0,1.87.78L.75,2A2.94,2.94,0,0,0,0,3.8V7.57A1.43,1.43,0,0,0,1.43,9H19.68A1.43,1.43,0,0,0,21.1,7.57V3.8A3,3,0,0,0,20.36,2Zm-.44,5.62a.25.25,0,0,1-.24.25H1.43a.25.25,0,0,1-.25-.25V3.8a1.78,1.78,0,0,1,.42-1L2.72,1.6a1.67,1.67,0,0,1,1-.42H17.39a1.67,1.67,0,0,1,1,.42l1.13,1.17a1.84,1.84,0,0,1,.41,1Zm-.24,2.9H1.43A1.43,1.43,0,0,0,0,11.9v3.78a1.43,1.43,0,0,0,1.43,1.43H19.68a1.43,1.43,0,0,0,1.42-1.43V11.9A1.43,1.43,0,0,0,19.68,10.47Zm.24,5.21a.25.25,0,0,1-.24.25H1.43a.25.25,0,0,1-.25-.25V11.9a.25.25,0,0,1,.25-.25H19.68a.25.25,0,0,1,.24.25ZM17.21,4.89a.79.79,0,1,0,0,1.58.79.79,0,0,0,0-1.58ZM14.39,13a.79.79,0,0,0-.79.8.79.79,0,0,0,.79.79.79.79,0,0,0,.8-.79A.8.8,0,0,0,14.39,13ZM11.7,13a.8.8,0,0,0-.8.8.8.8,0,1,0,.8-.8Zm5.38,0a.8.8,0,0,0-.79.8.8.8,0,0,0,1.59,0A.8.8,0,0,0,17.08,13Zm-2.72-8.1a.79.79,0,1,0,0,1.58.79.79,0,1,0,0-1.58ZM19,19.75H12.64a2.17,2.17,0,0,0-4.17,0H2.12a.58.58,0,0,0-.59.59.59.59,0,0,0,.59.59H8.47a2.17,2.17,0,0,0,4.17,0H19a.59.59,0,0,0,.59-.59A.58.58,0,0,0,19,19.75Zm-7.44.59a1,1,0,1,1-1-1,1,1,0,0,1,1,1Z"/></svg>
