<svg xmlns="http://www.w3.org/2000/svg" viewBox="0 0 23.74 21.9"><path class="cls-1" d="M23.09,20.54H.66a.69.69,0,0,0-.66.7.66.66,0,0,0,.66.66H23.09a.7.7,0,0,0,.65-.71A.65.65,0,0,0,23.09,20.54Z"/><path class="cls-1" d="M23.09,5.14H18.6a.66.66,0,0,0-.66.66V9.34H14.77V.66A.65.65,0,0,0,14.11,0H9.63A.66.66,0,0,0,9,.66V11.21H5.8V9.07a.66.66,0,0,0-.66-.66H.66A.66.66,0,0,0,0,9.07v8.41a.66.66,0,0,0,.66.66H23.09a.66.66,0,0,0,.65-.66V5.8A.65.65,0,0,0,23.09,5.14ZM1.32,9.73H4.49v7.09H1.32Zm4.48,2.8H9v4.29H5.8Zm4.49-.66V1.32h3.17v15.5H10.29Zm4.48-1.21h3.17v6.16H14.77Zm7.66,6.16H19.26V6.46h3.17Z"/></svg>