<svg xmlns="http://www.w3.org/2000/svg" viewBox="0 0 25.13 20.81"><rect class="cls-1" x="14.3" y="6.09" width="1.18" height="0.89"/><rect class="cls-1" x="16.65" y="6.09" width="1.18" height="0.89"/><rect class="cls-1" x="19.01" y="6.09" width="1.18" height="0.89"/><path class="cls-2" d="M23.9.25H10.52a1,1,0,0,0-1,1V11.87a1,1,0,0,0,1,1h5.93l4.43,3.44a.55.55,0,0,0,.35.12.58.58,0,0,0,.57-.57v-3h2.1a1,1,0,0,0,1-1V1.23A1,1,0,0,0,23.9.25Zm.41,11.62a.41.41,0,0,1-.41.41H21.22v3.57l-4.58-3.57H10.52a.4.4,0,0,1-.4-.41V1.23a.4.4,0,0,1,.4-.4H23.9a.4.4,0,0,1,.41.4Z"/><path class="cls-2" d="M15,16a.41.41,0,0,1-.41.4H8.48L3.91,20V16.41H1.23a.4.4,0,0,1-.4-.4V5.37A.4.4,0,0,1,1.23,5H7.79V4.38H1.23a1,1,0,0,0-1,1V16a1,1,0,0,0,1,1H3.34v3a.56.56,0,0,0,.32.51.54.54,0,0,0,.25.06.55.55,0,0,0,.34-.13L8.68,17h5.93a1,1,0,0,0,1-1V14.36H15Z"/></svg>
