<?xml version="1.0" encoding="UTF-8" standalone="no"?>
<svg width="80px" height="80px" viewBox="0 0 80 80" version="1.1" xmlns="http://www.w3.org/2000/svg" xmlns:xlink="http://www.w3.org/1999/xlink">
    <!-- Generator: Sketch 48.1 (47250) - http://www.bohemiancoding.com/sketch -->
    <title>front</title>
    <desc>Created with Sketch.</desc>
    <defs>
        <rect id="path-1" x="0" y="0" width="79.8869875" height="79.7337056"></rect>
    </defs>
    <g id="Homepage" stroke="none" stroke-width="1" fill="none" fill-rule="evenodd" transform="translate(-248.000000, -419.000000)">
        <g id="front" transform="translate(248.000000, 419.000000)">
            <mask id="mask-2" fill="white">
                <use xlink:href="#path-1"></use>
            </mask>
            <use id="Mask" fill="#FB5B4A" xlink:href="#path-1"></use>
            <g id="front-copy" mask="url(#mask-2)">
                <g transform="translate(-44.771828, -2.628584)" id="Group-2">
                    <g>
                        <g id="Group-17-Copy-2" transform="translate(0.000000, 43.971653)">
                            <g id="Group-16">
                                <path d="M61.2115188,0.0242565476 C63.9365952,3.45165033 71.5217928,7.91871897 80.9956345,11.3669153 C90.7779466,14.9273858 99.7154464,16.3613107 103.846649,15.3022927 C109.523813,22.9412247 112.32334,32.8617053 111.037563,43.7040017 L102.555358,115.230074 C101.124033,127.299699 90.122888,137.084063 77.9713291,137.084063 L56.929451,137.084063 C44.7833918,137.084063 33.7777064,127.307786 32.3454225,115.230074 L23.8632169,43.7040017 C21.0591662,20.0588859 37.6893222,0.799487131 61.2115188,0.0242565476 Z M70.0213558,0 L72.2122832,0 C82.2000962,0 91.0189231,3.30441938 97.744266,8.87235047 C96.9860997,10.8904029 90.1403006,10.2561976 82.4345803,7.45154477 C76.1527062,5.16512956 71.2358109,2.14108066 70.0213558,-5.38458167e-15 Z" id="Combined-Shape" fill="#000000"></path>
                                <g id="Group" transform="translate(32.699457, 22.549627)">
                                    <g id="Group-3" transform="translate(36.391358, -0.000000)">
                                        <path d="M15.9656306,22.25906 C23.3100943,22.25906 29.2639585,16.2920825 29.2639585,8.93144278 C29.2639585,1.57080304 2.6673027,8.93144278 2.6673027,8.93144278 C2.6673027,8.93144278 8.6211669,22.25906 15.9656306,22.25906 Z" id="Oval-3-Copy-4" fill="#FFFFFF" transform="translate(15.965631, 13.959554) rotate(-30.000000) translate(-15.965631, -13.959554) "></path>
                                        <ellipse id="Oval-3-Copy-5" fill="#000000" cx="9.56260359" cy="12.7799777" rx="4.27446254" ry="4.28387696"></ellipse>
                                    </g>
                                    <g id="Group-3-Copy" transform="translate(16.937494, 14.177215) scale(-1, 1) translate(-16.937494, -14.177215) translate(0.734962, -0.000000)">
                                        <path d="M15.9656306,22.25906 C23.3100943,22.25906 29.2639585,16.2920825 29.2639585,8.93144278 C29.2639585,1.57080304 2.6673027,8.93144278 2.6673027,8.93144278 C2.6673027,8.93144278 8.6211669,22.25906 15.9656306,22.25906 Z" id="Oval-3-Copy-4" fill="#FFFFFF" transform="translate(15.965631, 13.959554) rotate(-30.000000) translate(-15.965631, -13.959554) "></path>
                                        <ellipse id="Oval-3-Copy-5" fill="#000000" cx="9.56260359" cy="12.7799777" rx="4.27446254" ry="4.28387696"></ellipse>
                                    </g>
                                </g>
                            </g>
                        </g>
                        <g id="Group" transform="translate(90.336007, 30.770354) rotate(20.000000) translate(-90.336007, -30.770354) translate(65.525881, 7.479215)" fill-rule="nonzero">
                            <path d="M38.8307613,34.9058968 C38.9097252,36.0783886 39.0195175,37.2448815 39.1655466,38.3950141 C39.1655466,40.5567616 32.533121,42.3089551 24.3511644,42.3089551 C16.1692078,42.3089551 9.5367822,40.5567616 9.5367822,38.3950141 L9.53732305,38.3950141 C9.683893,37.2427001 9.79368525,36.0745711 9.87210829,34.9009887 C3.88329247,36.0707537 0,37.9467405 0,40.0632244 C0,43.6085122 10.8964754,46.4824803 24.338184,46.4824803 C37.7804335,46.4824803 48.6763681,43.6085122 48.6763681,40.0632244 C48.6763681,37.9500126 44.8044334,36.0756618 38.8307613,34.9058968 Z" id="Shape" fill="#000000"></path>
                            <path d="M39.9232754,11.2177465 C39.4619316,13.5087408 33.5639783,15.3312837 24.3506235,15.3312837 C15.1388913,15.3312837 9.23931551,13.5098315 8.77797171,11.2193825 C8.77797171,11.2193825 10.5784565,25.3040076 9.944582,38.9981656 C10.597927,40.9385031 16.7965921,42.460561 24.3506235,42.460561 C31.9068184,42.460561 38.1060243,40.9385031 38.7572059,38.9970749 C38.124954,25.3269121 39.9113767,11.2679182 39.9232754,11.2177465 Z" id="Shape" fill="#FB5B4A"></path>
                            <path d="M41.545821,5.76429655 C41.0844772,8.05529086 33.5639783,9.87783382 24.3506235,9.87783382 C15.1388913,9.87783382 7.6167699,8.05638155 7.15542611,5.76593259 C7.15542611,5.76593259 10.5784565,19.8505577 9.944582,33.5447157 C10.597927,35.4850532 16.7965921,37.0071111 24.3506235,37.0071111 C31.9068184,37.0071111 38.1060243,35.4850532 38.7572059,33.543625 C38.124954,19.8734622 41.5339223,5.81446829 41.545821,5.76429655 Z" id="Shape-Copy" fill="#000000"></path>
                            <path d="M41.5679958,4.75268159 C41.5679958,4.82575782 41.5615056,4.89774336 41.5469027,4.9697289 C41.0979984,7.26290459 33.5704685,9.08762893 24.3511644,9.08762893 C15.1394322,9.08762893 7.61731075,7.26617666 7.15596695,4.9757277 C7.14082319,4.90210612 7.13379216,4.82739386 7.13379216,4.75268159 C7.13379216,2.35861708 14.8425063,0.417734263 24.3511644,0.417734263 C33.8598225,0.417734263 41.5679958,2.35807174 41.5679958,4.75268159 Z" id="Shape" fill="#000000"></path>
                        </g>
                        <ellipse id="Oval-10" stroke="#FFFFFF" stroke-width="2" fill-opacity="0.200000018" fill="#FFFFFF" cx="52.4686493" cy="76.9503919" rx="15.0652557" ry="15.1806896"></ellipse>
                        <path d="M37.6018919,73.2860875 C37.6018919,73.2860875 33.2953798,82.575138 40.7498867,100.137746 C48.2043936,117.700355 46.6114324,125.633293 46.6114324,125.633293" id="Path-9" stroke="#FFFFFF" stroke-width="2"></path>
                    </g>
                </g>
            </g>
        </g>
    </g>
</svg>