<?xml version="1.0" encoding="UTF-8" standalone="no"?>
<svg width="919px" height="395px" viewBox="0 0 919 395" version="1.1" xmlns="http://www.w3.org/2000/svg" xmlns:xlink="http://www.w3.org/1999/xlink">
    <!-- Generator: Sketch 46.2 (44496) - http://www.bohemiancoding.com/sketch -->
    <title>@2xambassador_logo</title>
    <desc>Created with Sketch.</desc>
    <defs>
        <filter x="-14.8%" y="-131.9%" width="129.6%" height="363.7%" filterUnits="objectBoundingBox" id="filter-1">
            <feGaussianBlur stdDeviation="4" in="SourceGraphic"></feGaussianBlur>
        </filter>
        <polygon id="path-2" points="38.0884902 124.96651 32.6033908 69.9988611 86.1125912 149.476776 135.737132 72.2777836 131.207837 118.323274 127.037849 162.929133 110.99381 178.316796 95.6850808 177.305697 85.3634069 171.507676 76.4480892 176.294598 62.2512449 178.316796 43.0241631 163.845441"></polygon>
        <path d="M98.058452,181.118038 L98.058452,180.529523 C98.058452,179.924924 98.2438793,179.465051 98.6147396,179.149888 C98.9855998,178.834725 99.4738352,178.657851 100.07946,178.619259 C100.344846,178.599964 100.603424,178.590316 100.855201,178.590316 C101.787455,178.590316 102.583602,178.706088 103.243665,178.937637 L103.243665,180.394453 C102.62443,180.330135 101.80787,180.297976 100.793958,180.297976 C100.494548,180.297976 100.29381,180.320487 100.191738,180.36551 C100.089667,180.410533 100.038632,180.529522 100.038632,180.722478 L100.038632,180.828604 C100.038632,180.995833 100.076057,181.114822 100.15091,181.185573 C100.225763,181.256323 100.392477,181.291698 100.651058,181.291698 L101.610527,181.291698 C102.420295,181.291698 102.981681,181.622936 103.294701,182.285421 C103.444406,182.607016 103.519257,182.957549 103.519257,183.337031 L103.519257,183.655408 C103.519257,185.096152 102.828583,185.816514 101.447213,185.816514 C100.453716,185.816514 99.8038697,185.802042 99.4976548,185.773099 C99.1914399,185.744155 98.7899642,185.649286 98.2932155,185.488489 L98.2932155,184.031672 C99.0417409,184.102423 99.9229461,184.137798 100.936858,184.137798 C101.15461,184.137798 101.309417,184.107247 101.401281,184.046144 C101.493146,183.985041 101.539077,183.88374 101.539077,183.742238 L101.539077,183.587873 C101.539077,183.43994 101.501652,183.332207 101.426799,183.264672 C101.351946,183.197137 101.209048,183.16337 100.9981,183.16337 L100.07946,183.16337 C99.7120023,183.16337 99.3938838,183.105484 99.1250952,182.98971 C98.8563066,182.873936 98.6572699,182.738868 98.5279791,182.584503 C98.3986884,182.430137 98.293216,182.246831 98.2115586,182.034578 C98.109487,181.738711 98.058452,181.433201 98.058452,181.118038 Z M104.213341,185.739331 L104.213341,178.677146 L107.551066,178.677146 C108.272373,178.677146 108.833758,178.849197 109.23524,179.193303 C109.636722,179.53741 109.83746,180.121095 109.83746,180.944378 C109.83746,181.748365 109.718378,182.291852 109.480211,182.574855 C109.35092,182.716357 109.236942,182.817657 109.138272,182.87876 C109.039603,182.939863 108.905211,183.002574 108.735091,183.066892 L110.021188,185.739331 L107.765416,185.739331 L106.805947,183.240553 L106.19352,183.105484 L106.19352,185.739331 L104.213341,185.739331 Z M106.203728,181.696906 L107.295889,181.696906 C107.534056,181.696906 107.68546,181.642235 107.750105,181.532893 C107.81475,181.423551 107.847073,181.240245 107.847073,180.982969 C107.847073,180.725693 107.807946,180.542387 107.729691,180.433045 C107.651436,180.323702 107.506837,180.269032 107.295889,180.269032 L106.203728,180.269032 L106.203728,181.696906 Z M110.286572,183.684351 L110.286572,182.198591 L113.491606,182.198591 L113.491606,183.684351 L110.286572,183.684351 Z M113.869269,180.355862 L113.869269,178.677146 L118.77889,178.677146 L119.258624,179.429674 L116.921195,185.739331 L114.81853,185.739331 L116.839539,180.355862 L113.869269,180.355862 Z M122.831114,178.677146 L122.831114,185.739331 L120.850934,185.739331 L120.850934,180.45234 L119.646494,180.645296 L119.646494,179.458617 L120.871348,178.677146 L122.831114,178.677146 Z" id="path-3"></path>
    </defs>
    <g id="Page-1" stroke="none" stroke-width="1" fill="none" fill-rule="evenodd">
        <g id="Ambassador" transform="translate(-326.000000, -229.000000)">
            <g id="ambassador_logo" transform="translate(326.000000, 222.000000)">
                <g id="Group-17">
                    <g id="Group-17-Copy">
                        <g id="Group-17">
                            <g id="Group-7" transform="translate(0.000000, 145.666667)" fill-rule="nonzero">
                                <g id="M-Copy-5" transform="translate(0.000000, 137.000000)">
                                    <g id="Group-Copy-18">
                                        <path d="M0.0646278075,35.0632345 L0.0646278075,35.0632345 L0.256077851,48.2303877 C0.291280395,50.6514751 2.14693144,53.3518502 4.40072095,54.2570624 L76.5830097,83.2483624 C78.8348034,84.152773 82.490354,84.159163 84.7434528,83.2608444 L153.473198,55.8580486 C155.727995,54.9590527 157.566087,52.2656056 157.582485,49.8405533 L157.672481,36.5311298 C157.688916,34.100641 155.884141,31.3977284 153.641487,30.4818627 L81.269496,0.926250249 C79.0316351,0.012342155 75.3868845,0.009075774 73.139424,0.923326885 L4.07021881,29.0201934 C1.82378436,29.9340272 0.0293941346,32.6400062 0.0646278075,35.0632345 L0.0646278075,35.0632345 Z" id="Rectangle-49" fill="#68C2D6" opacity="0.800000012"></path>
                                        <path d="M73.2023036,0.741660701 C75.4446049,-0.173336886 79.0813873,-0.169113497 81.3284359,0.752386243 L153.522449,30.3586733 C155.768086,31.2795944 155.762888,32.7594745 153.507043,33.6656027 L84.7453492,61.2858042 C82.4912031,62.1912497 78.8424166,62.1913801 76.592401,61.284824 L4.30306055,32.158652 C2.05445768,31.2526652 2.05037297,29.7760479 4.2916506,28.861468 L73.2023036,0.741660701 L73.2023036,0.741660701 Z" id="Rectangle-49-Copy-4" fill="#FFFFFF" opacity="0.480000019"></path>
                                    </g>
                                </g>
                                <g id="M-Copy-7" transform="translate(761.000000, 140.000000)">
                                    <g id="Group-Copy-18">
                                        <path d="M0.0646278075,35.0632345 L0.0646278075,35.0632345 L0.256077851,48.2303877 C0.291280395,50.6514751 2.14693144,53.3518502 4.40072095,54.2570624 L76.5830097,83.2483624 C78.8348034,84.152773 82.490354,84.159163 84.7434528,83.2608444 L153.473198,55.8580486 C155.727995,54.9590527 157.566087,52.2656056 157.582485,49.8405533 L157.672481,36.5311298 C157.688916,34.100641 155.884141,31.3977284 153.641487,30.4818627 L81.269496,0.926250249 C79.0316351,0.012342155 75.3868845,0.009075774 73.139424,0.923326885 L4.07021881,29.0201934 C1.82378436,29.9340272 0.0293941346,32.6400062 0.0646278075,35.0632345 L0.0646278075,35.0632345 Z" id="Rectangle-49" fill="#68C2D6" opacity="0.800000012"></path>
                                        <path d="M73.2023036,0.741660701 C75.4446049,-0.173336886 79.0813873,-0.169113497 81.3284359,0.752386243 L153.522449,30.3586733 C155.768086,31.2795944 155.762888,32.7594745 153.507043,33.6656027 L84.7453492,61.2858042 C82.4912031,62.1912497 78.8424166,62.1913801 76.592401,61.284824 L4.30306055,32.158652 C2.05445768,31.2526652 2.05037297,29.7760479 4.2916506,28.861468 L73.2023036,0.741660701 L73.2023036,0.741660701 Z" id="Rectangle-49-Copy-4" fill="#FFFFFF" opacity="0.480000019"></path>
                                    </g>
                                </g>
                                <g id="M-Copy-3" transform="translate(436.406250, 0.000000)">
                                    <g id="Group-Copy-18">
                                        <path d="M0.165659886,89.7451837 L0.165659886,89.7451837 L0.656402086,123.446826 C0.746636455,129.643657 5.50321035,136.555331 11.280329,138.872243 L196.30455,213.076166 C202.076553,215.391026 211.446794,215.407381 217.222142,213.108114 L393.396488,142.970005 C399.17619,140.669004 403.887754,133.775062 403.929787,127.568083 L404.160473,93.5022965 C404.2026,87.2814025 399.576438,80.3632333 393.827863,78.0190534 L208.317379,2.37075957 C202.58109,0.0315900396 193.238533,0.0232296596 187.477638,2.36327715 L10.4331558,74.2778761 C4.67489028,76.6168552 0.0753457247,83.542873 0.165659886,89.7451837 L0.165659886,89.7451837 Z" id="Rectangle-49" fill="#68C2D6" opacity="0.800000012"></path>
                                        <path d="M187.638816,1.89829822 C193.386487,-0.443659886 202.708619,-0.432850022 208.468459,1.9257505 L393.522732,77.7037471 C399.278955,80.0608667 399.265631,83.8486549 393.483242,86.1679117 L217.227003,156.862475 C211.44897,159.179984 202.096068,159.180318 196.328623,156.859966 L11.029997,82.3108356 C5.26617317,79.9919406 5.25570286,76.2125035 11.00075,73.8716145 L187.638816,1.89829822 L187.638816,1.89829822 Z" id="Rectangle-49-Copy-4" fill="#FFFFFF" opacity="0.480000019"></path>
                                    </g>
                                </g>
                                <g id="M-Copy-2" transform="translate(105.000000, 41.000000)">
                                    <g id="Group-Copy-18">
                                        <path d="M0.165659886,89.7451837 L0.165659886,89.7451837 L0.656402086,123.446826 C0.746636455,129.643657 5.50321035,136.555331 11.280329,138.872243 L196.30455,213.076166 C202.076553,215.391026 211.446794,215.407381 217.222142,213.108114 L393.396488,142.970005 C399.17619,140.669004 403.887754,133.775062 403.929787,127.568083 L404.160473,93.5022965 C404.2026,87.2814025 399.576438,80.3632333 393.827863,78.0190534 L208.317379,2.37075957 C202.58109,0.0315900396 193.238533,0.0232296596 187.477638,2.36327715 L10.4331558,74.2778761 C4.67489028,76.6168552 0.0753457247,83.542873 0.165659886,89.7451837 L0.165659886,89.7451837 Z" id="Rectangle-49" fill="#68C2D6" opacity="0.800000012"></path>
                                        <path d="M187.638816,1.89829822 C193.386487,-0.443659886 202.708619,-0.432850022 208.468459,1.9257505 L393.522732,77.7037471 C399.278955,80.0608667 399.265631,83.8486549 393.483242,86.1679117 L217.227003,156.862475 C211.44897,159.179984 202.096068,159.180318 196.328623,156.859966 L11.029997,82.3108356 C5.26617317,79.9919406 5.25570286,76.2125035 11.00075,73.8716145 L187.638816,1.89829822 L187.638816,1.89829822 Z" id="Rectangle-49-Copy-4" fill="#FFFFFF" opacity="0.480000019"></path>
                                    </g>
                                </g>
                            </g>
                            <g id="Group-2" transform="translate(554.000000, 0.000000)">
                                <g id="Group-17-Copy-2" transform="translate(0.000000, 54.712640)">
                                    <g id="Group-16">
                                        <ellipse id="Oval-8-Copy-10" fill="#000000" opacity="0.203824627" filter="url(#filter-1)" transform="translate(84.225757, 186.547775) scale(1, -1) translate(-84.225757, -186.547775) " cx="84.2257567" cy="186.547775" rx="40.5907261" ry="4.54994572"></ellipse>
                                        <g id="Group-12-Copy-8" transform="translate(52.767944, 165.820244)" fill="#000000">
                                            <path d="M13.6650377,1.03192901 C13.0035785,1.02042494 12.4580349,1.54339239 12.4464935,2.20220611 L12.1980841,16.3821152 C12.18656,17.0399455 12.7097909,17.5824848 13.3748957,17.5940523 L19.0964488,17.6935612 C19.757908,17.7050653 20.3034516,17.1820979 20.3149929,16.5232841 L20.5634023,2.343375 C20.5749265,1.68554474 20.0516956,1.14300546 19.3865908,1.13143799 L13.6650377,1.03192901 Z" id="Line-Copy-18" fill-rule="nonzero" transform="translate(16.380743, 9.362745) rotate(-3.000000) translate(-16.380743, -9.362745) "></path>
                                            <path d="M0,14.5767016 C0,13.2271866 1.09469435,12.1331886 2.44560089,12.1331886 L12.7759214,12.1331886 C14.1265895,12.1331886 15.2238959,13.224906 15.2268254,14.5722304 L15.2292574,15.6907951 C15.2304585,16.2432115 14.7920114,16.702202 14.2320553,16.7164341 L2.44719308,17.0159634 C1.09564566,17.0503149 0,15.9807124 0,14.6346493 L0,14.5767016 Z" id="Rectangle-7-Copy-15"></path>
                                        </g>
                                        <g id="Group-12-Copy-10" transform="translate(108.227874, 174.820244) scale(-1, 1) translate(-108.227874, -174.820244) translate(97.727874, 165.820244)" fill="#000000">
                                            <path d="M13.6650377,1.03192901 C13.0035785,1.02042494 12.4580349,1.54339239 12.4464935,2.20220611 L12.1980841,16.3821152 C12.18656,17.0399455 12.7097909,17.5824848 13.3748957,17.5940523 L19.0964488,17.6935612 C19.757908,17.7050653 20.3034516,17.1820979 20.3149929,16.5232841 L20.5634023,2.343375 C20.5749265,1.68554474 20.0516956,1.14300546 19.3865908,1.13143799 L13.6650377,1.03192901 Z" id="Line-Copy-18" fill-rule="nonzero" transform="translate(16.380743, 9.362745) rotate(-3.000000) translate(-16.380743, -9.362745) "></path>
                                            <path d="M0,14.5767016 C0,13.2271866 1.09469435,12.1331886 2.44560089,12.1331886 L12.7759214,12.1331886 C14.1265895,12.1331886 15.2238959,13.224906 15.2268254,14.5722304 L15.2292574,15.6907951 C15.2304585,16.2432115 14.7920114,16.702202 14.2320553,16.7164341 L2.44719308,17.0159634 C1.09564566,17.0503149 0,15.9807124 0,14.6346493 L0,14.5767016 Z" id="Rectangle-7-Copy-15"></path>
                                        </g>
                                        <path d="M76.4808164,0.0282665956 C79.9372267,4.27797786 89.3730712,9.80366907 101.136091,14.0850581 C113.299485,18.5121716 124.411267,20.320598 129.588462,19.0496862 C136.694498,28.5938495 140.194653,41.000858 138.574114,54.5641661 L127.407184,148.02722 C125.966203,160.087694 114.945028,169.86464 102.80243,169.86464 L65.612233,169.86464 C53.4643832,169.86464 42.4488446,160.090919 41.0074784,148.02722 L29.840548,54.5641661 C26.3109241,25.0225266 47.0828381,0.964169206 76.4808164,0.0282665956 Z M87.4396215,0 L90.1522385,0 C102.617227,0 113.620139,4.12236947 122.009045,11.0693793 C121.016137,13.5358069 112.5032,12.7217315 102.919242,9.23345596 C95.1210699,6.39515339 89.0041222,2.6563751 87.4396215,-4.21884749e-15 Z" id="Combined-Shape" fill="#000000"></path>
                                        <g id="Group" transform="translate(41.601101, 27.299674)">
                                            <g id="Group-3" transform="translate(44.654192, 0.000000)">
                                                <path d="M19.9320292,28.2240047 C29.1011042,28.2240047 36.5341082,20.8301584 36.5341082,11.7093869 C36.5341082,2.58861529 3.32995023,11.7093869 3.32995023,11.7093869 C3.32995023,11.7093869 10.7629542,28.2240047 19.9320292,28.2240047 Z" id="Oval-3-Copy-4" fill="#FFFFFF" transform="translate(19.932029, 17.939858) rotate(-30.000000) translate(-19.932029, -17.939858) "></path>
                                                <ellipse id="Oval-3-Copy-5" fill="#000000" cx="11.9382753" cy="16.4782125" rx="5.33638252" ry="5.30827001"></ellipse>
                                            </g>
                                            <g id="Group-3-Copy" transform="translate(20.595119, 18.000000) scale(-1, 1) translate(-20.595119, -18.000000) translate(0.595119, 0.000000)">
                                                <path d="M19.9320292,28.2240047 C29.1011042,28.2240047 36.5341082,20.8301584 36.5341082,11.7093869 C36.5341082,2.58861529 3.32995023,11.7093869 3.32995023,11.7093869 C3.32995023,11.7093869 10.7629542,28.2240047 19.9320292,28.2240047 Z" id="Oval-3-Copy-4" fill="#FFFFFF" transform="translate(19.932029, 17.939858) rotate(-30.000000) translate(-19.932029, -17.939858) "></path>
                                                <ellipse id="Oval-3-Copy-5" fill="#000000" cx="11.9382753" cy="16.4782125" rx="5.33638252" ry="5.30827001"></ellipse>
                                            </g>
                                        </g>
                                        <path d="M40.8662239,119.344397 L50.3874434,123.293356 C50.3874434,123.293356 45.1608622,86.1742558 35.9309662,77.7581696 C26.7010702,69.3420835 8.97371419,81.3773967 12.0869646,88.3698717 C13.9355555,92.5218747 20.3783512,110.84698 20.3783512,110.84698 L29.580599,114.663645 L27.992765,107.810848 L29.9702844,107.355952 L31.8849727,115.619392 L34.0712246,116.526147 L32.0518376,107.810848 L34.029357,107.355952 L36.3755983,117.481894 L38.5618502,118.38865 L36.1109102,107.810848 L38.0884296,107.355952 L40.8662239,119.344397 Z" id="Combined-Shape-Copy-13" fill="#000000" transform="translate(31.056150, 99.086636) scale(-1, 1) rotate(41.000000) translate(-31.056150, -99.086636) "></path>
                                        <path d="M159.165956,99.5335872 L168.687175,103.482546 C168.687175,103.482546 163.460594,66.3634459 154.230698,57.9473597 C145.000802,49.5312735 127.273446,61.5665868 130.386697,68.5590617 C132.235287,72.7110648 138.678083,91.0361702 138.678083,91.0361702 L147.880331,94.8528347 L146.292497,88.0000377 L148.270016,87.5451421 L150.184705,95.8085818 L152.370956,96.7153374 L150.35157,88.0000377 L152.329089,87.5451421 L154.67533,97.6710845 L156.861582,98.5778401 L154.410642,88.0000377 L156.388162,87.5451421 L159.165956,99.5335872 Z" id="Combined-Shape-Copy-4" fill="#000000" transform="translate(149.355882, 79.275826) rotate(-111.000000) translate(-149.355882, -79.275826) "></path>
                                        <polygon id="Rectangle-2-Copy-18" fill="#FFFFFF" points="32.4725809 66.7325372 84.7925998 112.923175 136.458522 63.9746118 125.650217 155.36772 45.0081579 156.291526"></polygon>
                                        <g id="Rectangle-2-Copy-17">
                                            <use fill="#000000" fill-rule="evenodd" xlink:href="#path-2"></use>
                                            <path stroke="#000000" stroke-width="1" d="M38.5853535,124.910192 L43.4935841,163.572956 L62.3861474,177.792534 L76.2897366,175.812107 L85.3688408,170.937243 L95.8311338,176.814254 L110.806806,177.803356 L126.557353,162.697177 L130.710239,118.274327 L135.036559,74.2923123 L86.1222547,150.386416 L33.2981937,71.9261479 L38.5853535,124.910192 Z"></path>
                                        </g>
                                        <path d="M75.4921651,61.2739058 C75.4921651,60.1694708 76.3855289,59.2741493 77.4991784,59.2741493 L91.7509786,59.2741493 C92.8594214,59.2741493 93.4693403,60.1291331 93.1182932,61.1689319 L89.9983721,70.4101143 C89.6450763,71.4565738 88.5121349,72.620462 87.4885744,73.0020159 L77.3622641,76.7768131 C76.329437,77.1618213 75.4921651,76.5714021 75.4921651,75.4741757 L75.4921651,61.2739058 Z" id="Rectangle-4-Copy-7" fill="#F5A623" transform="translate(84.354830, 68.084411) rotate(-315.000000) translate(-84.354830, -68.084411) "></path>
                                    </g>
                                </g>
                                <g id="Group" transform="translate(112.007749, 38.302277) rotate(20.000000) translate(-112.007749, -38.302277) translate(81.507749, 9.302277)" fill-rule="nonzero">
                                    <path d="M48.5064372,42.9725161 C48.6050769,44.4159662 48.7422267,45.8520312 48.9246427,47.267955 C48.9246427,49.9292742 40.6395789,52.0863929 30.4188789,52.0863929 C20.1981788,52.0863929 11.913115,49.9292742 11.913115,47.267955 L11.9137906,47.267955 C12.0968822,45.8493457 12.234032,44.4112666 12.3319962,42.9664738 C4.85091396,44.406567 0,46.7160872 0,49.3216824 C0,53.6862726 13.6116105,57.2244038 30.4026641,57.2244038 C47.1943933,57.2244038 60.8053282,53.6862726 60.8053282,49.3216824 C60.8053282,46.7201154 55.9686022,44.4126094 48.5064372,42.9725161 Z" id="Shape" fill="#000000"></path>
                                    <path d="M49.871179,13.8101248 C49.2948796,16.6305591 41.9273006,18.8742848 30.4182032,18.8742848 C18.9111327,18.8742848 11.5415269,16.6319019 10.9652275,13.8121389 C10.9652275,13.8121389 13.214349,31.151667 12.4225286,48.0104926 C13.2386712,50.3992347 20.9818919,52.2730343 30.4182032,52.2730343 C39.857217,52.2730343 47.6011134,50.3992347 48.4145536,48.0091499 C47.6247599,31.1798646 49.8563154,13.871891 49.871179,13.8101248 Z" id="Shape" fill="#FFFFFF"></path>
                                    <path d="M51.8980232,7.09640345 C51.3217239,9.91683778 41.9273006,12.1605635 30.4182032,12.1605635 C18.9111327,12.1605635 9.51468264,9.91818053 8.93838325,7.09841757 C8.93838325,7.09841757 13.214349,24.4379457 12.4225286,41.2967713 C13.2386712,43.6855133 20.9818919,45.559313 30.4182032,45.559313 C39.857217,45.559313 47.6011134,43.6855133 48.4145536,41.2954286 C47.6247599,24.4661433 51.8831597,7.15816969 51.8980232,7.09640345 Z" id="Shape-Copy" fill="#000000"></path>
                                    <path d="M51.9257234,5.85100814 C51.9257234,5.94097201 51.9176161,6.02959313 51.8993745,6.11821425 C51.3386142,8.94133407 41.935408,11.1877452 30.4188789,11.1877452 C18.9118083,11.1877452 9.51535825,8.9453623 8.93905886,6.12559934 C8.92014165,6.03496411 8.91135866,5.94298612 8.91135866,5.85100814 C8.91135866,2.90368448 18.5408958,0.514271054 30.4188789,0.514271054 C42.2968619,0.514271054 51.9257234,2.9030131 51.9257234,5.85100814 Z" id="Shape" fill="#000000"></path>
                                </g>
                                <path d="M62.4291621,139.168957 C61.48927,138.591121 60.8174726,139.017193 60.9272785,140.106901 L63.539141,166.02688 C63.6495657,167.122727 64.4694448,167.495223 65.3768429,166.854315 L105.222885,138.710517 C106.127395,138.07165 106.876483,138.445133 106.896162,139.552754 L107.344834,164.805477 C107.36445,165.909499 106.609525,166.33059 105.678526,165.758222 L62.4291621,139.168957 Z" id="Path-8-Copy" stroke="#000000" fill="#F9634E" transform="translate(84.130366, 152.783472) rotate(1.000000) translate(-84.130366, -152.783472) "></path>
                                <g id="Group-2-Copy" transform="translate(82.575538, 176.525688)" fill="#000000">
                                    <ellipse id="Oval-10-Copy" cx="1.81025307" cy="2.09985547" rx="1.81025307" ry="2.09985547"></ellipse>
                                    <ellipse id="Oval-10-Copy-2" cx="1.81025307" cy="10.4992774" rx="1.81025307" ry="2.09985547"></ellipse>
                                </g>
                                <g id="SR-71-Copy-4" transform="translate(110.444783, 182.203415) rotate(-56.000000) translate(-110.444783, -182.203415) ">
                                    <use fill="#333333" fill-rule="evenodd" xlink:href="#path-3"></use>
                                    <use fill="black" fill-opacity="1" xlink:href="#path-3"></use>
                                </g>
                                <ellipse id="Oval-10" stroke="#FFFFFF" stroke-width="2" fill-opacity="0.200000018" fill="#FFFFFF" cx="65.5443337" cy="95.4890418" rx="19.0955933" ry="19.0978084"></ellipse>
                                <path d="M46.8918208,90.843629 C46.8918208,90.843629 41.7577738,102.384276 50.644731,124.203931 C59.5316883,146.023585 57.6326252,155.879409 57.6326252,155.879409" id="Path-9" stroke="#FFFFFF" stroke-width="2"></path>
                            </g>
                        </g>
                    </g>
                </g>
            </g>
        </g>
    </g>
</svg>