<?xml version="1.0" encoding="UTF-8" standalone="no"?>
<svg width="55px" height="78px" viewBox="0 0 55 78" version="1.1" xmlns="http://www.w3.org/2000/svg" xmlns:xlink="http://www.w3.org/1999/xlink">
    <!-- Generator: Sketch 49.1 (51147) - http://www.bohemiancoding.com/sketch -->
    <title>noun_111967_cc</title>
    <desc>Created with Sketch.</desc>
    <defs></defs>
    <g id="Page-1" stroke="none" stroke-width="1" fill="none" fill-rule="evenodd">
        <g id="Ambassador-Features" transform="translate(-323.000000, -1850.000000)" fill="#F9634E" fill-rule="nonzero" stroke="#F9634E">
            <g id="noun_111967_cc" transform="translate(324.000000, 1851.000000)">
                <path d="M47.73,76.392 L39.028,76.392 C36.344,76.392 34.161,74.208 34.161,71.525 L34.161,62.824 C34.161,62.189 34.283,61.583 34.505,61.026 L16.975,46.299 C16.097,47.161 14.893,47.694 13.568,47.694 L4.867,47.694 C2.183,47.694 0,45.51 0,42.827 L0,34.126 C0,31.442 2.184,29.259 4.867,29.259 L13.568,29.259 C14.961,29.259 16.219,29.847 17.107,30.788 L34.586,15.555 C34.313,14.948 34.161,14.275 34.161,13.568 L34.161,4.867 C34.161,2.183 36.345,0 39.028,0 L47.729,0 C50.413,0 52.596,2.184 52.596,4.867 L52.596,13.568 C52.596,16.252 50.412,18.435 47.729,18.435 L39.028,18.435 C37.775,18.435 36.631,17.959 35.767,17.178 L18.163,32.52 C18.339,33.023 18.435,33.563 18.435,34.125 L18.435,42.826 C18.435,43.461 18.313,44.067 18.091,44.624 L35.621,59.351 C36.5,58.489 37.703,57.956 39.028,57.956 L47.729,57.956 C50.413,57.956 52.596,60.14 52.596,62.823 L52.596,71.524 C52.597,74.209 50.413,76.392 47.73,76.392 Z M39.028,59.957 C37.447,59.957 36.161,61.243 36.161,62.824 L36.161,71.525 C36.161,73.106 37.447,74.392 39.028,74.392 L47.729,74.392 C49.31,74.392 50.596,73.106 50.596,71.525 L50.596,62.824 C50.596,61.243 49.31,59.957 47.729,59.957 L39.028,59.957 Z M4.867,31.259 C3.286,31.259 2,32.545 2,34.126 L2,42.827 C2,44.408 3.286,45.694 4.867,45.694 L13.568,45.694 C15.149,45.694 16.435,44.408 16.435,42.827 L16.435,34.126 C16.435,32.545 15.149,31.259 13.568,31.259 L4.867,31.259 Z M39.028,2 C37.447,2 36.161,3.286 36.161,4.867 L36.161,13.568 C36.161,15.149 37.447,16.435 39.028,16.435 L47.729,16.435 C49.31,16.435 50.596,15.149 50.596,13.568 L50.596,4.867 C50.596,3.286 49.31,2 47.729,2 L39.028,2 Z" id="Shape"></path>
            </g>
        </g>
    </g>
</svg>