<?xml version="1.0" encoding="UTF-8" standalone="no"?>
<svg width="90px" height="58px" viewBox="0 0 90 58" version="1.1" xmlns="http://www.w3.org/2000/svg" xmlns:xlink="http://www.w3.org/1999/xlink">
    <!-- Generator: Sketch 49.1 (51147) - http://www.bohemiancoding.com/sketch -->
    <title>noun_196445_cc</title>
    <desc>Created with Sketch.</desc>
    <defs></defs>
    <g id="Page-1" stroke="none" stroke-width="1" fill="none" fill-rule="evenodd">
        <g id="Ambassador-Features" transform="translate(-305.000000, -1109.000000)" fill="#F9634E" fill-rule="nonzero">
            <g id="noun_196445_cc" transform="translate(305.000000, 1109.000000)">
                <path d="M77.5987396,55.5664336 C77.802039,56.0734266 77.802039,56.6818182 77.49709,57.1888112 C77.1921409,57.6958042 76.6838926,58 76.0739945,58 L1.66643226,58 C1.05653421,58 0.548285836,57.6958042 0.243336811,57.1888112 C-0.0616122149,56.6818182 -0.0616122149,56.0734266 0.141687135,55.5664336 L7.46046375,40.8636364 L7.46046375,1.62237762 C7.46046375,0.70979021 8.17201148,0 9.08685855,0 L68.6535682,0 C69.5684153,0 70.279963,0.70979021 70.279963,1.62237762 L70.279963,8.31468531 C70.279963,9.22727273 69.5684153,9.93706294 68.6535682,9.93706294 C67.7387211,9.93706294 67.0271734,9.22727273 67.0271734,8.31468531 L67.0271734,3.34615385 L10.814903,3.34615385 L10.814903,39.7482517 L50.3566267,39.7482517 C51.2714738,39.7482517 51.9830215,40.458042 51.9830215,41.3706294 C51.9830215,42.2832168 51.2714738,42.993007 50.3566267,42.993007 L10.205005,42.993007 L4.41097349,54.7552448 L31.2464877,54.7552448 L32.4662838,52.3216783 C32.7712329,51.7132867 33.2794812,51.4090909 33.991029,51.4090909 L44.1559965,51.4090909 C44.7658945,51.4090909 45.3757926,51.8146853 45.6807416,52.3216783 L46.9005377,54.7552448 L73.6344023,54.7552448 L71.7030585,50.9020979 C71.2964598,50.0909091 71.6014088,49.0769231 72.4146062,48.6713287 C73.2278036,48.2657343 74.2443003,48.5699301 74.650899,49.3811189 L77.5987396,55.5664336 Z M81.1564783,39.8496503 L90,48.6713287 L87.6620575,51.0034965 L78.8185357,42.1818182 C75.9723448,44.513986 72.3129565,45.9335664 68.3486192,45.9335664 C59.2001484,45.9335664 51.7797221,38.5314685 51.7797221,29.4055944 C51.7797221,20.2797203 59.2001484,12.8776224 68.3486192,12.8776224 C77.49709,12.8776224 84.9175162,20.2797203 84.9175162,29.4055944 C84.9175162,33.2587413 83.4944208,36.9090909 81.1564783,39.8496503 Z M81.563077,29.3041958 C81.563077,22.0034965 75.5657461,16.020979 68.2469695,16.020979 C60.9281929,16.020979 54.9308621,22.0034965 54.9308621,29.3041958 C54.9308621,36.6048951 60.9281929,42.5874126 68.2469695,42.5874126 C75.5657461,42.5874126 81.563077,36.6048951 81.563077,29.3041958 Z" id="Shape"></path>
            </g>
        </g>
    </g>
</svg>