<svg width="446" height="42" viewBox="0 0 446 42" fill="none" xmlns="http://www.w3.org/2000/svg">
<path fill-rule="evenodd" clip-rule="evenodd" d="M44.347 39.9666H30.8399L29.4243 35.4837H15.2684L13.8528 39.9666H0.345703L14.8555 1.63199H29.8372L44.347 39.9666ZM26.2398 25.3685L22.3469 13.0118L18.454 25.3685H26.2398ZM139.107 39.967H114.394V1.63243H138.282C146.421 1.63243 149.96 6.91996 149.96 11.4029C149.96 16.1731 147.07 19.3916 143.236 20.1962C147.483 20.8285 150.727 24.6217 150.727 29.5644C150.727 34.9094 147.011 39.967 139.107 39.967ZM135.511 15.7708C136.749 15.7708 137.87 14.8513 137.87 13.4719C137.87 12.15 136.749 11.2879 135.511 11.2879H126.31V15.7708H135.511ZM135.865 30.3114C137.575 30.3114 138.637 29.3344 138.637 27.8976C138.637 26.5182 137.575 25.4262 135.865 25.4262H126.31V30.3114H135.865ZM196.812 39.967H183.305L181.889 35.4841H167.733L166.317 39.967H152.81L167.32 1.63243H182.302L196.812 39.967ZM178.704 25.3685L174.811 13.0118L170.919 25.3685H178.704ZM215.763 40.6562C207.388 40.6562 201.666 38.2424 197.479 34.5641L203.672 25.9431C206.621 28.7018 211.045 30.8858 216.353 30.8858C218.594 30.8858 220.718 30.3111 220.718 28.8168C220.718 25.1385 198.776 28.8743 198.776 13.7588C198.776 7.26436 204.321 1.05727 215.114 1.05727C221.544 1.05727 227.324 2.83893 231.807 6.40227L225.436 14.6209C222.015 12.0921 217.592 10.8277 213.876 10.8277C211.516 10.8277 210.868 11.5748 210.868 12.5519C210.868 16.1727 232.75 13.0691 232.75 27.3225C232.75 35.771 226.321 40.6562 215.763 40.6562ZM253.475 40.6562C245.099 40.6562 239.378 38.2424 235.19 34.5641L241.384 25.9431C244.333 28.7018 248.756 30.8858 254.065 30.8858C256.306 30.8858 258.43 30.3111 258.43 28.8168C258.43 25.1385 236.488 28.8743 236.488 13.7588C236.488 7.26436 242.032 1.05727 252.826 1.05727C259.255 1.05727 265.036 2.83893 269.518 6.40227L263.148 14.6209C259.727 12.0921 255.304 10.8277 251.588 10.8277C249.228 10.8277 248.579 11.5748 248.579 12.5519C248.579 16.1727 270.462 13.0691 270.462 27.3225C270.462 35.771 264.033 40.6562 253.475 40.6562ZM315.071 39.967H301.564L300.148 35.4841H285.992L284.577 39.967H271.069L285.579 1.63243H300.561L315.071 39.967ZM296.962 25.3685L293.069 13.0118L289.176 25.3685H296.962ZM336.381 39.967H318.745V1.63243H336.322C348.709 1.63243 357.91 8.5292 357.91 20.771C357.91 33.0128 348.709 39.967 336.381 39.967ZM336.323 29.8516C342.281 29.8516 345.82 25.5986 345.82 20.7708C345.82 15.5983 342.753 11.7476 336.382 11.7476H330.661V29.8516H336.323ZM383.113 40.6565C370.963 40.6565 361.585 32.6102 361.585 20.8282C361.585 9.04624 370.963 1 383.113 1C395.264 1 404.642 9.04624 404.642 20.8282C404.642 32.6102 395.264 40.6565 383.113 40.6565ZM383.114 30.4265C388.835 30.4265 392.551 26.1735 392.551 20.8285C392.551 15.4835 388.835 11.2305 383.114 11.2305C377.392 11.2305 373.677 15.4835 373.677 20.8285C373.677 26.1735 377.392 30.4265 383.114 30.4265ZM445.655 39.967H432.089L426.662 27.8976H422.356V39.967H410.442V1.63243H431.44C440.641 1.63243 445.596 7.60964 445.596 14.7938C445.596 21.4032 441.644 24.909 438.518 26.4033L445.655 39.967ZM429.61 17.7822C431.616 17.7822 433.503 16.8627 433.503 14.7362C433.503 12.6671 431.616 11.7476 429.61 11.7476H422.355V17.7822H429.61Z" fill="white"/>
<path fill-rule="evenodd" clip-rule="evenodd" d="M47.3848 0.0856119V41.5693L106.968 0.0856119V41.5693L47.3848 0.0856119Z" fill="#FF4329"/>
</svg>
