<?xml version="1.0" encoding="UTF-8"?>
<svg width="252px" height="470px" viewBox="0 0 252 470" version="1.1" xmlns="http://www.w3.org/2000/svg" xmlns:xlink="http://www.w3.org/1999/xlink">
    <!-- Generator: Sketch 61 (89581) - https://sketch.com -->
    <title>penguin</title>
    <desc>Created with Sketch.</desc>
    <g id="Screen" stroke="none" stroke-width="1" fill="none" fill-rule="evenodd">
        <g id="login" transform="translate(0.000000, -15.000000)">
            <g id="penguin" transform="translate(105.000000, 249.000000) rotate(-4.000000) translate(-105.000000, -249.000000) translate(-41.000000, 15.000000)">
                <path d="M195.216516,104.082625 C190.728182,105.594503 176.866258,104.422825 161.715074,99.7881294 C150.290487,96.2934332 140.414911,91.6345212 135.039598,87.5886278 C157.435414,86.466626 178.278462,92.3248713 195.216516,104.082625 Z M39.0736933,286.808842 L22.8652713,199.422416 C20.5713065,186.053651 20.9029245,173.128608 23.495309,161.116619 C26.533134,147.04075 32.6751808,134.218865 41.3333653,123.407087 C49.685469,112.977577 60.3789636,104.418801 72.8863611,98.4086729 C82.9418649,93.5767344 94.1698153,90.3922788 106.29598,89.2078704 C114.610872,97.7851923 134.131388,107.585222 157.148668,114.625901 C180.650132,121.814731 202.679198,124.567791 214.198272,121.85058 C228.587355,139.918862 235.74578,163.195498 234.09754,188.322017 L228.273613,277.107287 L204.62221,364.951702 C202.664241,394.797857 194.661631,421.263229 164.810175,422.832173 L116.21942,425.385502 C86.3842712,426.953349 77.943809,400.894389 72.8863611,371.422454 L39.0736933,286.808842 Z" id="Shape" fill="#000000"></path>
                <path d="M182.599249,190.223408 C197.946862,180.395587 202.25094,160.071556 192.211994,144.829167 C182.173049,129.586416 136.63254,180.41916 136.63254,180.41916 C136.63254,180.41916 167.25127,200.051229 182.599249,190.223408 Z" id="Path" fill="#FFFFFF"></path>
                <path d="M155.870906,181.150611 C161.386073,180.861983 165.622246,176.157216 165.332643,170.642098 C165.04304,165.126979 160.33725,160.889775 154.822083,161.178403 C149.306916,161.466688 145.070742,166.171455 145.360689,171.686573 C145.650292,177.201691 150.355739,181.438895 155.870906,181.150611 Z" id="Path" fill="#000000"></path>
                <path d="M76.9069188,195.814351 C60.7896844,187.53072 54.4387653,167.522256 62.7213304,151.124596 C71.0039679,134.726936 121.086448,181.122975 121.086448,181.122975 C121.086448,181.122975 93.0240086,204.098348 76.9069188,195.814351 Z" id="Path" fill="#FFFFFF"></path>
                <path d="M101.514378,184.366709 C95.9992558,184.654995 91.2935803,180.417784 91.0039094,174.902657 C90.7142384,169.38753 94.9502979,164.682756 100.465406,164.394471 C105.980518,164.106185 110.686211,168.343053 110.975882,173.858523 C111.265553,179.37365 107.029493,184.078081 101.514378,184.366709 Z" id="Path" stroke="#000000" stroke-width="2" fill="#000000"></path>
                <path d="M0.734319368,278.047309 C0.731753385,300.341518 57.2251817,359.425618 57.2251817,359.425618 L64.1320764,339.5514 L49.952451,319.279059 L53.2790655,316.947295 L65.7776051,334.816188 L67.3395193,330.321761 L55.3846383,313.230368 L58.7112528,310.898604 L68.9851579,325.586549 L70.5472187,321.091755 L60.8175587,307.181678 L64.1445398,304.849913 L72.192894,316.356542 L78.7343194,297.533696 C78.7343194,297.533696 60.0723238,263.017486 56.3622781,254.613871 C50.1144745,240.460802 0.735785645,265.70951 0.734319368,278.047309 Z" id="Path" fill="#000000"></path>
                <path d="M225.78817,276.284518 C223.413491,250.948602 264.435005,187.544725 264.435005,187.544725 L273.314035,207.01306 L263.277807,225.668995 L266.754425,227.654615 L275.399504,211.584801 L277.377685,215.922417 L269.181851,231.157604 L272.658469,233.143224 L279.462795,220.494529 L281.440976,224.831775 L275.085536,236.645842 L278.562154,238.631462 L283.526445,229.403887 L291.688909,247.300767 C291.688909,247.300767 277.877164,289.57965 274.288953,292.678847 C270.700382,295.777673 228.162848,301.620433 225.78817,276.284518 Z" id="Path" fill="#000000"></path>
                <polygon id="Path" fill="#FFFFFF" points="30.9882564 239.488915 136.727243 312.561384 229.988256 232.790065 202.672192 404.790065 81.3942063 404.790065"></polygon>
                <polygon id="Path" stroke="#000000" fill="#000000" fill-rule="nonzero" points="44.8216096 340.365248 29.0638635 231.158927 102.584525 367.531544 102.600112 367.560567 102.624728 367.582241 138.510016 399.217597 138.632488 399.325604 138.753749 399.216495 168.715028 372.199351 168.744362 372.1729 168.760129 372.136531 233.063864 224.897468 229.752735 317.229371 206.559433 442.879553 181.177412 452.126262 181.108843 452.151978 181.076208 452.218105 173.250871 467.897468 163.324451 467.897468 161.035996 455.513416 161.018028 455.4179 160.927825 455.377489 144.713194 448.415823 144.632158 448.382759 144.554421 448.42317 131.583304 455.384837 131.502011 455.428921 131.488517 455.520764 129.658559 467.897468 118.798313 467.897468 110.976496 455.450963 110.949471 455.406879 110.90426 455.384837 79.0039356 439.172787"></polygon>
                <path d="M129.494222,197.818615 C129.76083,197.532075 130.215129,197.508899 130.511051,197.766644 L155.948503,219.919016 C156.316736,220.239968 156.252476,220.817612 155.821788,221.053936 L133.15818,233.496978 C132.969875,233.600217 132.743881,233.616018 132.542292,233.54017 L106.650328,223.777465 C106.178199,223.599431 106.036201,223.01652 106.376084,222.651323 L129.494222,197.818615 Z" id="Path" fill="#F5A623"></path>
                <path d="M207.236388,95.5112906 C206.465693,98.3523366 205.773137,101.204306 205.179729,104.046934 C203.413508,109.166363 186.241508,107.907746 166.824506,101.23568 C147.407136,94.5637971 133.0992,85.0059967 134.865642,79.886641 L134.866932,79.8870823 C136.156362,77.2777513 137.371413,74.6009654 138.516507,71.8856708 C123.348166,69.7723568 112.599504,71.0484074 110.870067,76.0605857 C107.973089,84.4563909 131.483875,100.147796 163.383472,111.108723 C195.284175,122.069944 223.490631,124.148758 226.387277,115.75332 C228.11406,110.748645 220.456874,103.152808 207.236388,95.5112906 Z" id="Path" fill="#000000" fill-rule="nonzero"></path>
                <path d="M230.215291,38.3615075 C227.243349,43.4370116 211.731659,42.9411109 189.830848,35.3890613 C167.93373,27.8383797 155.400627,18.6665285 156.1785,12.8361004 C156.1785,12.8361004 148.930654,47.8401863 136.215291,79.9194086 C136.180286,85.0738841 149.669394,93.778081 167.625829,99.9699808 C185.587802,106.163618 201.569464,107.62178 204.706432,103.534195 C214.392378,70.4741521 230.145884,38.4711654 230.215291,38.3615075 Z" id="Path" fill="#5F3EFF" fill-rule="nonzero"></path>
                <path d="M238.073849,28.3369775 C235.128291,33.3947626 215.929286,31.5752318 194.219842,24.0496017 C172.514423,16.5252981 156.267929,6.06024171 157.039358,0.250210416 C157.039358,0.250210416 153.677712,36.4572054 141.073849,68.424167 C141.039151,73.5606105 154.409984,82.2343572 172.209584,88.4045957 C190.013941,94.5766395 205.856057,96.0296999 208.965562,91.9561938 C218.566345,59.0119532 238.005415,28.4462886 238.073849,28.3369775 Z" id="Path" fill="#000000" fill-rule="nonzero"></path>
                <path d="M68.034842,241.579849 C67.5071387,241.288755 66.8801962,241.738325 66.9715951,242.341938 L78.4238222,317.987562 C78.5083607,318.545738 79.1524722,318.805063 79.589321,318.456342 L185.685182,233.773139 C186.143266,233.407425 186.816597,233.711817 186.857251,234.302871 L191.960778,308.604587 C192.000706,309.186036 191.394163,309.583519 190.890707,309.305724 L68.034842,241.579849 Z" id="Path" fill="#FF4329"></path>
            </g>
        </g>
    </g>
</svg>