<?xml version="1.0" encoding="UTF-8" standalone="no"?>
<svg width="38px" height="37px" viewBox="0 0 38 37" version="1.1" xmlns="http://www.w3.org/2000/svg" xmlns:xlink="http://www.w3.org/1999/xlink">
    <!-- Generator: Sketch 46.2 (44496) - http://www.bohemiancoding.com/sketch -->
    <title>noun_1205522_cc</title>
    <desc>Created with Sketch.</desc>
    <defs></defs>
    <g id="Page-1" stroke="none" stroke-width="1" fill="none" fill-rule="evenodd">
        <g id="Ambassador" transform="translate(-488.000000, -586.000000)" fill-rule="nonzero" fill="#FFFFFF">
            <g id="noun_1205522_cc" transform="translate(488.000000, 586.000000)">
                <path d="M37.9650802,1.42487374 L37.933867,0.939015152 C37.9035998,0.469974747 37.5262046,0.0971717172 37.0513866,0.0654040404 L36.5604891,0.0336363636 C36.4677955,0.0289646465 35.9948692,0 35.239133,0 C31.626922,0 22.5874088,0.629747475 16.6928555,6.45444444 C15.9560363,7.18136364 15.2551595,7.9335101 14.6025212,8.69780303 C13.7985465,8.30444444 12.8612066,8.09328283 11.8850867,8.09328283 C10.1589058,8.09328283 8.52920176,8.72583333 7.41498741,9.8264899 L1.26316217,15.9034596 C0.593498538,16.5631061 0.79874855,17.3666414 0.908467451,17.7992424 C0.929276207,17.8814646 0.951030817,17.9646212 0.968056164,18.0505808 C1.06264142,18.5429798 1.30099627,18.9914646 1.66042026,19.3474495 C1.8770205,19.5586111 2.130509,19.729596 2.42466915,19.8613384 L8.68053817,22.57 C8.82903703,24.3807576 9.4958631,25.9158838 10.6308862,27.037096 C11.7763137,28.1685859 13.3492666,28.830101 15.206921,28.9665152 L17.9877276,35.2275505 C18.1097426,35.5106566 18.2856712,35.7666667 18.5126758,35.9918434 C18.8730457,36.3478283 19.3261091,36.5842172 19.82079,36.6729798 C19.9759098,36.7019444 20.1300838,36.7159596 20.2842577,36.7159596 C20.9529755,36.7159596 21.5810216,36.4599495 22.0548938,35.9927778 L28.2700911,29.8522727 C30.1069369,28.0387121 30.4606857,25.2637121 29.2358066,23.0792172 C30.0047848,22.4363889 30.7520083,21.7552525 31.4651812,21.0488889 C38.723654,13.8815404 37.9991309,1.92755051 37.9650802,1.42487374 Z M27.3847731,22.167298 C26.9827858,22.4896465 26.9165761,23.0698737 27.2362743,23.4716414 C28.4450739,24.9908838 28.3154921,27.1660354 26.9326556,28.5311111 L20.7184041,34.6706818 C20.6020642,34.7846717 20.4488361,34.8472727 20.2842577,34.8472727 C20.2464236,34.8472727 20.2076437,34.8435354 20.1650803,34.8360606 C20.0468487,34.8145707 19.9380757,34.7575758 19.852949,34.6725505 C19.7980895,34.6183586 19.7545803,34.5566919 19.7233671,34.4847475 L16.7032598,27.6836616 C16.5538151,27.347298 16.2189833,27.1286616 15.8482091,27.1239899 C14.2014797,27.1043687 12.8962032,26.6315909 11.9692676,25.7159343 C11.0508448,24.8068182 10.5703516,23.5333081 10.5429219,21.9290404 C10.536301,21.5637121 10.3159173,21.2366919 9.97635622,21.09 L3.19270145,18.1514899 C3.11514154,18.1178535 3.04798601,18.0730051 2.99596411,18.0216162 C2.90894568,17.9356566 2.84935696,17.822601 2.82571065,17.7020707 C2.80301019,17.5796717 2.7727429,17.4600758 2.74247562,17.3423485 C2.72639613,17.2806818 2.70558737,17.1975253 2.69234543,17.1311869 L8.75147712,11.1457828 C9.50248407,10.4029798 10.6734496,9.95916667 11.8841409,9.95916667 C12.7912135,9.95916667 13.6311306,10.2095707 14.2487724,10.6627273 C14.6592724,10.9617172 15.2324591,10.8869697 15.5512114,10.4973485 C16.3050559,9.56861111 17.1392979,8.6520202 18.0293452,7.77280303 C23.4254342,2.44424242 31.8624393,1.86868687 35.239133,1.86868687 C35.5995029,1.86868687 35.8889337,1.87616162 36.0941838,1.88363636 C36.1707978,3.85883838 36.2266031,13.7068182 30.1277456,19.7286616 C29.2575612,20.5891919 28.3344091,21.4095455 27.3847731,22.167298 Z M6.99859977,30.0877273 C6.62877141,29.722399 6.03099257,29.722399 5.66116421,30.0877273 L0.277371272,35.4050758 C-0.0924570906,35.770404 -0.0924570906,36.3609091 0.277371272,36.7262374 C0.460866674,36.9084343 0.703004937,37 0.945143199,37 C1.18728146,37 1.42941972,36.9084343 1.61386098,36.7262374 L6.99765392,31.4088889 C7.36748228,31.0435606 7.36748228,30.4521212 6.99859977,30.0877273 Z M11.0440113,30.8473485 L6.42919651,35.4050758 C6.05936815,35.770404 6.05936815,36.3609091 6.42919651,36.7262374 C6.61363776,36.9084343 6.85577603,37 7.09791429,37 C7.34005255,37 7.58219082,36.9084343 7.76663207,36.7262374 L12.3814469,32.1685101 C12.7512752,31.8031818 12.7512752,31.2126768 12.3814469,30.8473485 C12.0116185,30.4820202 11.4138397,30.4820202 11.0440113,30.8473485 Z M2.48404536,29.4028535 C2.72618362,29.4028535 2.96832189,29.3112879 3.15276314,29.1290909 L5.45969761,26.8502273 C5.82952597,26.484899 5.82952597,25.8943939 5.45969761,25.5290657 C5.08986924,25.1637374 4.49209041,25.1637374 4.12226205,25.5290657 L1.81532758,27.8079293 C1.44549922,28.1732576 1.44549922,28.7637626 1.81532758,29.1290909 C1.99976884,29.3112879 2.2419071,29.4028535 2.48404536,29.4028535 Z" id="Shape"></path>
            </g>
        </g>
    </g>
</svg>