<?xml version="1.0" encoding="UTF-8" standalone="no"?>
<svg width="38px" height="34px" viewBox="0 0 38 34" version="1.1" xmlns="http://www.w3.org/2000/svg" xmlns:xlink="http://www.w3.org/1999/xlink">
    <!-- Generator: Sketch 46.2 (44496) - http://www.bohemiancoding.com/sketch -->
    <title>noun_1062254_cc</title>
    <desc>Created with Sketch.</desc>
    <defs></defs>
    <g id="Page-1" stroke="none" stroke-width="1" fill="none" fill-rule="evenodd">
        <g id="Ambassador" transform="translate(-906.000000, -588.000000)" fill-rule="nonzero" fill="#FFFFFF">
            <g id="noun_1062254_cc" transform="translate(906.000000, 588.000000)">
                <path d="M11.6590909,0 C9.0459678,0 6.90909091,2.21301015 6.90909091,4.91923436 C6.90909091,7.62545858 9.0459678,9.83846872 11.6590909,9.83846872 C13.9782378,9.83846872 15.9203094,8.09736073 16.328125,5.81364061 L31.3068182,5.81364061 C34.0728706,5.81364061 36.2727273,8.09187444 36.2727273,10.9564765 C36.2727273,13.8609414 34.2887797,16.0993125 31.5227273,16.0993125 C31.2112697,16.0947519 30.921568,16.2642203 30.7645541,16.5428252 C30.6075402,16.8214301 30.6075402,17.1660074 30.7645541,17.4446122 C30.921568,17.7232171 31.2112697,17.8926855 31.5227273,17.888125 C35.2158113,17.888125 38,14.741276 38,10.9564765 C38,7.1318143 34.9999022,4.02482811 31.3068182,4.02482811 L16.328125,4.02482811 C15.9203094,1.741108 13.9782378,0 11.6590909,0 Z M11.6590909,1.7888125 C13.3387268,1.7888125 14.6818182,3.17975597 14.6818182,4.91923436 C14.6818182,6.65871275 13.3387268,8.04965623 11.6590909,8.04965623 C9.97945507,8.04965623 8.63636364,6.65871275 8.63636364,4.91923436 C8.63636364,3.17975597 9.97945507,1.7888125 11.6590909,1.7888125 Z M6.69318182,16.0993125 C3.00009784,16.0993125 0,19.2062986 0,23.0309609 C0,26.8556231 3.00009784,29.9626093 6.69318182,29.9626093 L16.921875,29.9626093 L14.506392,32.4641518 C14.2822593,32.6898361 14.1933711,33.0233295 14.2739781,33.3361291 C14.354585,33.6489286 14.5921049,33.8922078 14.8950155,33.9722253 C15.1979261,34.0522428 15.5189447,33.9565083 15.734375,33.7219106 L19.6072443,29.7110575 C19.7712195,29.5430412 19.8634874,29.3140785 19.8634874,29.0751906 C19.8634874,28.8363027 19.7712195,28.60734 19.6072443,28.4393237 L15.7208807,24.4144955 C15.7040252,24.3902857 15.6860102,24.3669647 15.6669034,24.3446201 C15.4379033,24.1274323 15.1144163,24.0532654 14.8182969,24.1500572 C14.5221776,24.2468491 14.2984133,24.4998948 14.2312941,24.8138744 C14.1641749,25.127854 14.2638976,25.4550666 14.4928977,25.6722543 L16.921875,28.1737968 L6.69318182,28.1737968 C3.92712943,28.1737968 1.72727273,25.895563 1.72727273,23.0309609 C1.72727273,20.1663588 3.92712943,17.888125 6.69318182,17.888125 L28.0681818,17.888125 C28.3796394,17.8926855 28.6693411,17.7232171 28.826355,17.4446122 C28.9833689,17.1660074 28.9833689,16.8214301 28.826355,16.5428252 C28.6693411,16.2642203 28.3796394,16.0947519 28.0681818,16.0993125 L6.69318182,16.0993125 Z M26.3409091,24.1489687 C23.727786,24.1489687 21.5909091,26.3619788 21.5909091,29.0682031 C21.5909091,31.7744273 23.727786,33.9874374 26.3409091,33.9874374 C28.9540322,33.9874374 31.0909091,31.7744273 31.0909091,29.0682031 C31.0909091,26.3619788 28.9540322,24.1489687 26.3409091,24.1489687 Z M26.3409091,25.9377812 C28.0205449,25.9377812 29.3636364,27.3287247 29.3636364,29.0682031 C29.3636364,30.8076814 28.0205449,32.1986249 26.3409091,32.1986249 C24.6612732,32.1986249 23.3181818,30.8076814 23.3181818,29.0682031 C23.3181818,27.3287247 24.6612732,25.9377812 26.3409091,25.9377812 Z" id="Shape"></path>
            </g>
        </g>
    </g>
</svg>