<?xml version="1.0" encoding="UTF-8" standalone="no"?>
<svg width="88px" height="58px" viewBox="0 0 88 58" version="1.1" xmlns="http://www.w3.org/2000/svg" xmlns:xlink="http://www.w3.org/1999/xlink">
    <!-- Generator: Sketch 49.1 (51147) - http://www.bohemiancoding.com/sketch -->
    <title>noun_511233_cc</title>
    <desc>Created with Sketch.</desc>
    <defs></defs>
    <g id="Page-1" stroke="none" stroke-width="1" fill="none" fill-rule="evenodd">
        <g id="Ambassador-Features" transform="translate(-676.000000, -483.000000)" fill="#F9634E" fill-rule="nonzero">
            <g id="noun_511233_cc" transform="translate(676.000000, 482.000000)">
                <path d="M88.004,15.967 C88.002,14.631 87.609,13.276 86.74,12.159 L79.767,3.237 C78.599,1.754 76.822,0.999 75.046,0.996 C73.989,0.996 72.913,1.267 71.962,1.86 L65.163,6.09 C64.448,6.546 63.222,6.859 62.038,6.851 C61.118,6.855 60.229,6.671 59.642,6.381 L52.984,3.156 C51.91,2.639 50.713,2.427 49.509,2.425 C47.78,2.433 46.029,2.858 44.622,3.833 L43.845,4.378 C43.224,4.068 42.275,3.596 41.2,3.061 C39.911,2.429 38.395,2.174 36.864,2.169 C35.481,2.173 34.098,2.386 32.884,2.899 L28.349,4.834 C27.611,5.154 26.437,5.363 25.271,5.358 C24.105,5.363 22.933,5.154 22.195,4.834 L17.656,2.898 C16.828,2.545 15.943,2.394 15.066,2.393 C14.056,2.394 13.052,2.593 12.119,2.971 C11.187,3.351 10.322,3.912 9.633,4.682 L1.369,13.937 C0.453,14.96 -0.002,16.248 3.70814507e-14,17.516 C-0.002,19.028 0.645,20.545 1.893,21.608 L9.602,28.185 L5.945,32 C4.937,33.052 4.435,34.416 4.435,35.765 C4.433,37.2 5.003,38.649 6.132,39.716 L6.874,40.421 C7.573,41.084 8.413,41.506 9.292,41.731 C8.851,42.542 8.61,43.431 8.612,44.322 C8.61,45.758 9.18,47.206 10.307,48.274 L10.305,48.273 L11.049,48.981 C12.108,49.985 13.481,50.485 14.834,50.484 C15.561,50.485 16.289,50.339 16.973,50.053 C17.213,51.027 17.709,51.953 18.489,52.693 L19.233,53.401 C20.292,54.405 21.663,54.905 23.018,54.904 C24.077,54.905 25.141,54.593 26.057,53.987 C26.325,54.849 26.784,55.666 27.483,56.33 L28.227,57.038 C29.284,58.042 30.657,58.542 32.01,58.541 C33.451,58.542 34.906,57.976 35.981,56.854 L39.213,53.479 L43.604,57.543 C44.655,58.518 46.004,59.003 47.336,59 C48.799,59.003 50.275,58.417 51.352,57.264 L52.053,56.513 C52.658,55.863 53.053,55.094 53.282,54.291 L54.983,55.861 C56.036,56.832 57.383,57.315 58.713,57.314 C60.178,57.315 61.658,56.729 62.736,55.575 L63.433,54.825 C64.238,53.965 64.691,52.9 64.831,51.812 C65.28,51.927 65.735,52.005 66.194,52.005 C67.659,52.005 69.135,51.42 70.214,50.267 L70.913,49.517 C71.89,48.47 72.376,47.127 72.374,45.803 C72.374,45.392 72.315,44.983 72.224,44.579 C73.439,44.418 74.617,43.876 75.513,42.914 L76.214,42.163 C77.191,41.116 77.675,39.773 77.675,38.448 C77.677,36.99 77.089,35.519 75.929,34.447 L74.618,33.236 L86.45,20.154 C87.512,18.976 88.002,17.46 88.004,15.967 Z M8.197,37.562 C7.683,37.076 7.429,36.429 7.427,35.765 C7.429,35.142 7.652,34.534 8.111,34.055 L15.601,26.239 C16.089,25.73 16.74,25.475 17.408,25.474 C18.033,25.475 18.644,25.7 19.127,26.155 L19.867,26.861 C19.867,26.861 20.633,27.994 20.635,28.659 C20.633,29.157 20.483,29.642 20.192,30.062 C20.167,30.087 12.108,38.486 12.108,38.486 C11.68,38.789 11.174,38.945 10.659,38.947 C10.032,38.945 9.419,38.721 8.94,38.267 L8.197,37.562 Z M14.836,47.506 C14.209,47.505 13.598,47.28 13.117,46.826 L12.373,46.119 L12.371,46.118 C11.861,45.634 11.605,44.985 11.605,44.321 C11.605,43.698 11.83,43.09 12.287,42.611 C12.287,42.611 22.271,32.218 22.355,32.118 C22.832,31.659 23.447,31.422 24.082,31.421 C24.709,31.422 25.32,31.646 25.801,32.101 L26.545,32.809 C27.057,33.293 27.311,33.941 27.313,34.606 C27.311,35.229 27.086,35.838 26.629,36.317 L16.641,46.743 C16.154,47.25 15.504,47.504 14.836,47.506 Z M23.02,51.926 C22.393,51.925 21.782,51.7 21.301,51.245 L20.555,50.538 C20.043,50.053 19.787,49.405 19.787,48.741 C19.787,48.185 19.976,47.646 20.338,47.197 L27.291,39.94 C27.76,39.517 28.348,39.294 28.957,39.294 C29.584,39.295 30.195,39.519 30.676,39.974 L31.422,40.682 C31.932,41.166 32.188,41.814 32.19,42.478 C32.188,43.102 31.961,43.711 31.506,44.189 L24.824,51.162 C24.338,51.67 23.688,51.924 23.02,51.926 Z M33.816,54.799 C33.33,55.307 32.679,55.561 32.011,55.563 C31.384,55.562 30.773,55.337 30.292,54.882 L29.548,54.175 C29.038,53.691 28.782,53.042 28.78,52.378 C28.782,51.754 29.007,51.145 29.464,50.668 L33.681,46.265 C34.169,45.757 34.82,45.502 35.488,45.501 C36.113,45.502 36.726,45.726 37.207,46.182 L37.953,46.889 C38.463,47.373 38.717,48.021 38.719,48.685 C38.717,49.309 38.492,49.918 38.035,50.396 L33.816,54.799 Z M74.023,40.138 L73.324,40.888 C72.836,41.41 72.174,41.674 71.496,41.675 C70.881,41.674 70.279,41.458 69.801,41.016 L58.021,30.122 L55.984,32.303 L68.593,43.984 C69.118,44.47 69.382,45.13 69.386,45.804 C69.382,46.418 69.165,47.016 68.722,47.492 L68.025,48.242 C67.537,48.764 66.875,49.027 66.197,49.029 C65.582,49.027 64.978,48.81 64.504,48.371 L52.721,37.477 L50.686,39.658 L61.143,49.328 C61.647,49.811 61.905,50.454 61.905,51.114 C61.905,51.726 61.688,52.325 61.245,52.8 L60.546,53.55 C60.06,54.072 59.396,54.336 58.716,54.338 C58.099,54.336 57.497,54.119 57.021,53.68 L46.585,44.045 L46.583,44.045 L46.581,44.043 L44.55,46.228 L44.552,46.23 L44.591,46.267 L49.818,51.091 C50.281,51.567 50.521,52.177 50.523,52.808 C50.521,53.417 50.306,54.013 49.863,54.488 L49.164,55.239 C48.676,55.761 48.016,56.023 47.34,56.025 C46.725,56.023 46.123,55.807 45.647,55.366 L41.096,51.152 C41.492,50.375 41.713,49.532 41.713,48.686 C41.715,47.251 41.145,45.804 40.018,44.735 L39.272,44.027 C38.215,43.024 36.844,42.523 35.491,42.525 C35.386,42.525 35.28,42.549 35.177,42.555 C35.177,42.53 35.183,42.504 35.183,42.479 C35.185,41.044 33.488,38.526 33.488,38.526 L32.744,37.82 C31.953,37.07 30.988,36.602 29.984,36.414 C30.191,35.828 30.308,35.218 30.308,34.607 C30.308,33.172 29.74,31.724 28.613,30.656 L27.869,29.948 C26.81,28.944 25.439,28.443 24.086,28.444 C23.928,28.444 23.772,28.476 23.615,28.49 C23.572,27.112 23.017,25.735 21.937,24.709 L21.937,24.708 L21.195,24.003 C20.136,22.998 18.765,22.497 17.412,22.498 C15.969,22.497 14.516,23.063 13.441,24.185 L11.673,26.03 L3.841,19.35 C3.278,18.868 2.997,18.202 2.995,17.518 C2.997,16.945 3.192,16.384 3.608,15.918 L11.872,6.663 C12.2,6.295 12.685,5.962 13.253,5.731 C13.821,5.5 14.466,5.373 15.069,5.374 C15.594,5.374 16.087,5.469 16.481,5.639 L21.018,7.575 C22.297,8.114 23.782,8.335 25.274,8.34 C26.768,8.335 28.251,8.114 29.53,7.575 L34.065,5.64 C34.764,5.335 35.819,5.146 36.868,5.15 C38.028,5.143 39.19,5.383 39.864,5.727 C40.292,5.94 40.698,6.142 41.075,6.331 L36.45,9.582 C34.964,10.627 34.163,12.289 34.165,13.966 C34.163,15.076 34.515,16.206 35.231,17.165 L35.229,17.163 L35.84,17.984 C37,19.526 38.809,20.319 40.617,20.323 C41.638,20.323 42.678,20.065 43.605,19.509 L46.371,17.848 C46.935,17.503 47.787,17.285 48.668,17.289 C49.703,17.283 50.746,17.589 51.373,18.05 L59.025,23.536 C60.728,24.756 63.502,27.019 65.039,28.443 L73.896,36.632 C74.421,37.119 74.685,37.776 74.687,38.451 C74.686,39.063 74.467,39.662 74.023,40.138 Z M84.229,18.163 L72.43,31.21 L67.073,26.258 C65.395,24.709 62.628,22.45 60.772,21.117 L53.122,15.631 C51.825,14.712 50.237,14.315 48.667,14.309 C47.331,14.313 45.985,14.604 44.823,15.296 L42.059,16.957 C41.635,17.212 41.135,17.342 40.616,17.343 C39.688,17.346 38.759,16.913 38.241,16.208 L37.632,15.388 L37.63,15.386 C37.306,14.949 37.155,14.459 37.153,13.963 C37.157,13.213 37.503,12.485 38.173,12.012 L46.351,6.266 C47.058,5.754 48.316,5.395 49.511,5.404 C50.341,5.4 51.134,5.567 51.677,5.835 L58.335,9.06 C59.47,9.605 60.751,9.828 62.04,9.831 C63.696,9.823 65.37,9.463 66.749,8.616 L73.55,4.385 C73.984,4.114 74.505,3.974 75.048,3.974 C75.966,3.972 76.886,4.388 77.407,5.067 L84.38,13.989 C84.782,14.5 85.015,15.221 85.015,15.968 C85.016,16.804 84.721,17.626 84.229,18.163 Z" id="Shape"></path>
            </g>
        </g>
    </g>
</svg>