<?xml version="1.0" ?><svg id="Layer_1" style="enable-background:new 0 0 100 100;" version="1.1" viewBox="0 0 100 100" xml:space="preserve" xmlns="http://www.w3.org/2000/svg" xmlns:xlink="http://www.w3.org/1999/xlink"><style type="text/css">
	.st0{fill:#FFFFFF;}
	.st1{fill:url(#Oval_1_);}
	.st2{fill:#FF1414;}
	.st3{clip-path:url(#SVGID_3_);}
	.st4{clip-path:url(#SVGID_4_);fill:#FF1414;}
</style><g id="Symbols_9_"><g id="Graphics-_x2F_-App-Icons-_x2F_-Safari"><g id="Safari-Icon"><path class="st0" d="M63.6,5c9,0,13.5,0,18.4,1.5c5.3,1.9,9.5,6.1,11.4,11.4C95,22.8,95,27.4,95,36.4v27.2     c0,9,0,13.5-1.5,18.4c-1.9,5.3-6.1,9.5-11.4,11.4c-5,1.6-9.5,1.6-18.5,1.6H36.4c-9,0-13.5,0-18.4-1.5c-5.4-2-9.5-6.1-11.5-11.5     C5,77.2,5,72.7,5,63.6V36.4c0-9,0-13.5,1.5-18.4c2-5.3,6.1-9.5,11.5-11.4C22.8,5,27.3,5,36.4,5H63.6z" id="Background_10_"/><linearGradient gradientTransform="matrix(52 0 0 52 28462 22066)" gradientUnits="userSpaceOnUse" id="Oval_1_" x1="-546.3846" x2="-546.3846" y1="-424.1346" y2="-422.6346"><stop offset="0" style="stop-color:#23D9FD"/><stop offset="1" style="stop-color:#1F63F0"/></linearGradient><circle class="st1" cx="50" cy="50" id="Oval_4_" r="39"/><path class="st0" d="M49.2,14H50v6.7h-0.7L49.2,14L49.2,14z M55.5,14.5l0.7,0.1L55,21.2l-0.7-0.1L55.5,14.5L55.5,14.5     z M61.6,16.1l0.7,0.3L60,22.7l-0.7-0.3L61.6,16.1L61.6,16.1z M67.3,18.7l0.6,0.4l-3.4,5.8l-0.6-0.4L67.3,18.7L67.3,18.7z      M72.5,22.2l0.6,0.5l-4.3,5.2l-0.6-0.5L72.5,22.2L72.5,22.2z M76.9,26.6l0.5,0.6l-5.2,4.3l-0.5-0.6L76.9,26.6L76.9,26.6z      M80.6,31.7l0.4,0.6l-5.8,3.4l-0.4-0.6L80.6,31.7L80.6,31.7z M83.3,37.4l0.3,0.7l-6.3,2.3L77,39.7L83.3,37.4L83.3,37.4z M85,43.4     l0.1,0.7l-6.6,1.2l-0.1-0.7L85,43.4L85,43.4z M85.6,49.6v0.7h-6.7v-0.7H85.6L85.6,49.6z M85.1,55.9L85,56.6l-6.6-1.2l0.1-0.7     L85.1,55.9L85.1,55.9z M83.6,62l-0.3,0.7L77,60.4l0.3-0.7L83.6,62L83.6,62z M81,67.7l-0.4,0.6L74.7,65l0.4-0.6L81,67.7L81,67.7z      M77.4,72.9l-0.5,0.6l-5.2-4.3l0.5-0.6L77.4,72.9L77.4,72.9z M73,77.3l-0.6,0.5l-4.3-5.2l0.6-0.5L73,77.3L73,77.3z M67.9,81     l-0.6,0.4l-3.4-5.8l0.6-0.4L67.9,81L67.9,81z M62.3,83.7L61.6,84l-2.3-6.3l0.7-0.3L62.3,83.7L62.3,83.7z M56.2,85.4l-0.7,0.1     l-1.2-6.6l0.7-0.1L56.2,85.4L56.2,85.4z M50,86h-0.7v-6.7H50V86L50,86z M43.7,85.5L43,85.4l1.2-6.6l0.7,0.1L43.7,85.5L43.7,85.5z      M37.7,84L37,83.7l2.3-6.3l0.7,0.3L37.7,84L37.7,84z M31.9,81.4L31.3,81l3.4-5.8l0.6,0.4L31.9,81.4L31.9,81.4z M26.8,77.8     l-0.6-0.5l4.3-5.2l0.6,0.5L26.8,77.8L26.8,77.8z M22.3,73.4l-0.5-0.6l5.2-4.3l0.5,0.6L22.3,73.4L22.3,73.4z M18.6,68.3l-0.4-0.6     l5.8-3.4l0.4,0.6L18.6,68.3L18.6,68.3z M15.9,62.7L15.7,62l6.3-2.3l0.3,0.7L15.9,62.7L15.9,62.7z M14.2,56.6l-0.1-0.7l6.6-1.2     l0.1,0.7L14.2,56.6L14.2,56.6z M13.6,50.4v-0.7h6.7v0.7H13.6L13.6,50.4z M14.1,44.1l0.1-0.7l6.6,1.2l-0.1,0.7L14.1,44.1     L14.1,44.1z M15.7,38.1l0.3-0.7l6.3,2.3L22,40.4L15.7,38.1L15.7,38.1z M18.3,32.3l0.4-0.6l5.8,3.4l-0.4,0.6L18.3,32.3L18.3,32.3z      M21.8,27.2l0.5-0.6l5.2,4.3L27,31.5L21.8,27.2L21.8,27.2z M26.2,22.7l0.6-0.5l4.3,5.2l-0.6,0.5L26.2,22.7L26.2,22.7z M31.3,19     l0.6-0.4l3.4,5.8l-0.6,0.4L31.3,19L31.3,19z M36.9,16.3l0.7-0.3l2.3,6.3l-0.7,0.3L36.9,16.3L36.9,16.3z M43,14.6l0.7-0.1l1.2,6.6     l-0.7,0.1L43,14.6L43,14.6z" id="Scale"/><path class="st0" d="M52.4,14.1l0.7,0.1l-0.3,3.7l-0.8,0L52.4,14.1z M58.6,15.2l0.7,0.2l-1,3.6l-0.7-0.2L58.6,15.2     z M64.5,17.2l0.7,0.3L63.6,21l-0.7-0.3L64.5,17.2z M69.9,20.3l0.6,0.4l-2.2,3.1l-0.6-0.4L69.9,20.3z M74.8,24.3l0.5,0.5l-2.7,2.7     L72.1,27L74.8,24.3z M78.9,29.1l0.4,0.6l-3.1,2.2l-0.4-0.6L78.9,29.1z M82.1,34.5l0.3,0.7L79,36.7L78.7,36L82.1,34.5z M84.3,40.3     l0.2,0.7l-3.6,1l-0.2-0.7L84.3,40.3z M85.4,46.5l0.1,0.7l-3.7,0.3l-0.1-0.7L85.4,46.5z M85.5,52.8l-0.1,0.7l-3.7-0.3l0.1-0.7     L85.5,52.8z M84.5,59l-0.2,0.7l-3.6-1l0.2-0.7L84.5,59z M82.4,64.9l-0.3,0.7L78.7,64l0.3-0.7L82.4,64.9z M79.3,70.3L78.9,71     l-3.1-2.2l0.4-0.6L79.3,70.3z M75.3,75.2l-0.5,0.5L72.1,73l0.5-0.5L75.3,75.2z M70.6,79.3L70,79.7l-2.2-3.1l0.6-0.4L70.6,79.3z      M65.2,82.5l-0.7,0.3l-1.6-3.4l0.7-0.3L65.2,82.5z M59.3,84.7l-0.7,0.2l-1-3.6l0.7-0.2L59.3,84.7z M53.1,85.8l-0.7,0.1L52,82.2     l0.7-0.1L53.1,85.8z M46.8,85.9l-0.7-0.1l0.3-3.7l0.7,0.1L46.8,85.9z M40.7,84.9L40,84.7l1-3.6l0.7,0.2L40.7,84.9z M34.7,82.8     L34,82.5l1.6-3.4l0.7,0.3L34.7,82.8z M29.3,79.7l-0.6-0.4l2.2-3.1l0.6,0.4L29.3,79.7z M24.4,75.7l-0.5-0.5l2.7-2.7l0.5,0.5     L24.4,75.7z M20.3,71l-0.4-0.6l3.1-2.2l0.4,0.6L20.3,71z M17.2,65.6l-0.3-0.7l3.4-1.6l0.3,0.7L17.2,65.6z M14.9,59.7L14.8,59     l3.6-1l0.2,0.7L14.9,59.7z M13.8,53.5l-0.1-0.7l3.7-0.3l0.1,0.7L13.8,53.5z M13.7,47.3l0.1-0.7l3.7,0.3l-0.1,0.7L13.7,47.3z      M14.8,41.1l0.2-0.7l3.6,1L18.4,42L14.8,41.1z M16.8,35.1l0.3-0.7l3.4,1.6l-0.3,0.7L16.8,35.1z M19.9,29.7l0.4-0.6l3.1,2.2     L23,31.8L19.9,29.7z M23.9,24.8l0.5-0.5l2.7,2.7l-0.5,0.5L23.9,24.8z M28.7,20.8l0.6-0.4l2.2,3.1l-0.6,0.4L28.7,20.8z M34.1,17.6     l0.7-0.3l1.6,3.4L35.6,21L34.1,17.6z M39.9,15.4l0.7-0.2l1,3.6L40.9,19L39.9,15.4z M46.1,14.2l0.7-0.1l0.3,3.7l-0.7,0.1     L46.1,14.2z" id="Scale_1_"/><g id="Compass" transform="translate(30.000000, 30.000000) rotate(45.000000) translate(-30.000000, -30.000000) translate(26.500000, 4.000000)"><g id="Arrow_4_"><polyline class="st0" id="path-2_1_" points="37,26 26.5,26 31.5,64.9 37,26 26.5,26      "/></g><polygon class="st2" id="path-2_3_" points="26.5,26 31.4,-13 37,26     "/><g><defs><polygon id="SVGID_1_" points="37.3,-24.3 37.3,-23.3 36.3,-24.3       "/></defs><defs><polygon id="SVGID_2_" points="39.3,-26.3 39.3,-27.3 40.3,-26.3       "/></defs><clipPath id="SVGID_3_"><use style="overflow:visible;" xlink:href="#SVGID_1_"/></clipPath><clipPath class="st3" id="SVGID_4_"><use style="overflow:visible;" xlink:href="#SVGID_2_"/></clipPath><rect class="st4" height="12" id="Arrow_3_" transform="matrix(5.070363e-06 1 -1 5.070363e-06 38.3558 -25.2686)" width="39" x="12.3" y="0.5"/></g></g></g></g></g></svg>