<?xml version="1.0" encoding="UTF-8" standalone="no"?>
<svg width="70px" height="70px" viewBox="0 0 70 70" version="1.1" xmlns="http://www.w3.org/2000/svg" xmlns:xlink="http://www.w3.org/1999/xlink">
    <!-- Generator: Sketch 49.1 (51147) - http://www.bohemiancoding.com/sketch -->
    <title>prometheus_logo_grey</title>
    <desc>Created with Sketch.</desc>
    <defs></defs>
    <g id="Page-1" stroke="none" stroke-width="1" fill="none" fill-rule="evenodd">
        <g id="Ambassador-Features" transform="translate(-686.000000, -788.000000)" fill-rule="nonzero" stroke="#F9634E" stroke-width="2">
            <g id="prometheus_logo_grey" transform="translate(688.000000, 790.000000)">
                <path d="M33.0002912,-1 C51.7772889,-1 67,14.2222376 67,32.9997088 C67,51.7771001 51.7773688,67 33.0002912,67 C14.223108,67 -1,51.7769945 -1,32.9997088 C-1,14.2221448 14.2228039,-1 33.0002912,-1 Z M41.2965871,55.0271594 L24.7039737,55.0271594 C25.3059975,58.2390049 28.7607299,60.7627128 33.0002912,60.7627128 C37.2395861,60.7627128 40.6944823,58.2387461 41.2965871,55.0271594 Z M47.508978,50.4653361 L47.508978,46.8408555 L18.4904397,46.8408555 L18.4904397,50.4653361 L47.508978,50.4653361 Z M47.9683241,41.9459195 C49.4749225,40.3305503 50.6258167,38.5900813 51.4669621,36.83568 C51.6121232,36.5329134 51.7428381,36.2402181 51.8598038,35.9593585 L46.5374622,36.9969574 C46.4870822,37.0092991 46.3928607,37.0318742 46.2580272,37.0634008 C46.0352038,37.1155011 45.7782555,37.1739821 45.4904065,37.237562 C44.6696856,37.4188422 43.7642989,37.60507 42.7999357,37.7859879 L40.0348845,38.3047213 L41.8521867,36.1571634 C43.6596149,34.0212739 44.668252,31.3397076 44.668252,28.5638351 C44.668252,24.6889692 43.983943,22.5682284 41.8392142,18.8434994 C40.7773496,16.9994035 40.0349973,14.9593493 39.8267443,12.9767638 C38.7400873,15.7407216 38.130913,19.7445892 37.9602077,24.3796582 L37.6824654,31.9210422 L35.9864664,24.567594 C35.7576157,23.5753519 35.6477588,22.6446907 35.4607559,20.508247 C35.4480595,20.3631526 35.4480595,20.3631526 35.4353505,20.2183123 C35.232395,17.9091378 35.0783858,16.7886035 34.7777566,15.8457574 C34.6672426,15.4996609 34.5530021,15.1560163 34.4344401,14.8122176 C33.9411709,13.3818662 32.4093518,9.55835256 32.2180774,9.00495588 C31.846909,7.93108826 31.6425358,7.0337979 31.6224135,6.20777581 C30.8674424,7.33194171 30.2743861,8.98091528 30.2743861,10.5157636 C30.2743861,14.3064107 29.2110296,18.9237449 27.398126,21.4290747 L25.6558998,23.8367323 L25.5882432,20.8656063 C25.5228101,17.9921219 24.9435387,15.5763955 24.2236863,14.0756101 C24.1271609,15.6494201 23.5024907,17.5983479 22.2887605,20.9073064 C21.0356602,24.3235984 20.5292633,26.2870004 20.5292633,28.4991926 C20.5292633,31.2191749 21.5807638,33.9473794 23.4429155,36.1302522 L25.2654693,38.2667071 L22.502778,37.7630419 C21.5919899,37.5969965 20.7394045,37.4284515 19.9685085,37.2660434 C19.6981574,37.2090873 19.4571162,37.1569164 19.2483309,37.11061 C19.1220618,37.0826049 19.0339719,37.0626291 18.9929811,37.0531242 C17.3292483,36.6788396 15.8264433,36.3450967 14.6749076,36.0958688 C14.5081465,36.0597766 14.3498507,36.0256967 14.2003373,35.9937017 C15.019247,37.9373243 15.9945652,39.4655081 18.036637,41.9459195 L47.9683241,41.9459195 Z" id="Shape"></path>
            </g>
        </g>
    </g>
</svg>