<?xml version="1.0" encoding="UTF-8" standalone="no"?>
<svg width="57px" height="69px" viewBox="0 0 57 69" version="1.1" xmlns="http://www.w3.org/2000/svg" xmlns:xlink="http://www.w3.org/1999/xlink">
    <!-- Generator: Sketch 49.1 (51147) - http://www.bohemiancoding.com/sketch -->
    <title>noun_587034_cc</title>
    <desc>Created with Sketch.</desc>
    <defs></defs>
    <g id="Page-1" stroke="none" stroke-width="1" fill="none" fill-rule="evenodd">
        <g id="Ambassador-Features" transform="translate(-1062.000000, -1855.000000)" fill="#F9634E" fill-rule="nonzero">
            <g id="noun_587034_cc" transform="translate(1062.000000, 1855.000000)">
                <path d="M10.5,15 C8.019,15 6,12.981 6,10.5 C6,8.019 8.019,6 10.5,6 C12.981,6 15,8.019 15,10.5 C15,12.981 12.981,15 10.5,15 Z M10.5,9 C9.6735,9 9,9.6735 9,10.5 C9,11.3265 9.6735,12 10.5,12 C11.3265,12 12,11.3265 12,10.5 C12,9.6735 11.3265,9 10.5,9 Z" id="Shape"></path>
                <path d="M10.5,33 C8.019,33 6,30.981 6,28.5 C6,26.019 8.019,24 10.5,24 C12.981,24 15,26.019 15,28.5 C15,30.981 12.981,33 10.5,33 Z M10.5,27 C9.6735,27 9,27.6735 9,28.5 C9,29.3265 9.6735,30 10.5,30 C11.3265,30 12,29.3265 12,28.5 C12,27.6735 11.3265,27 10.5,27 Z" id="Shape"></path>
                <path d="M10.5,51 C8.019,51 6,48.981 6,46.5 C6,44.019 8.019,42 10.5,42 C12.981,42 15,44.019 15,46.5 C15,48.981 12.981,51 10.5,51 Z M10.5,45 C9.6735,45 9,45.672 9,46.5 C9,47.328 9.6735,48 10.5,48 C11.3265,48 12,47.328 12,46.5 C12,45.672 11.3265,45 10.5,45 Z" id="Shape"></path>
                <path d="M44.4,48 C43.5152,48 42.8,48.6705 42.8,49.5 L42.8,54 L39.6,54 C38.7152,54 38,54.6705 38,55.5 C38,56.3295 38.7152,57 39.6,57 L44.4,57 C45.2848,57 46,56.3295 46,55.5 L46,49.5 C46,48.6705 45.2848,48 44.4,48 Z" id="Shape"></path>
                <path d="M44.982,42.087 C44.9835,42.0555 45,42.0315 45,42 L45,4.5 C45,2.019 42.981,0 40.5,0 L4.5,0 C2.019,0 0,2.019 0,4.5 L0,52.5 C0,54.981 2.019,57 4.5,57 L30.0885,57 C30.8385,63.7395 36.5625,69 43.5,69 C50.9445,69 57,62.9445 57,55.5 C57,48.5565 51.7305,42.828 44.982,42.087 Z M3,21 L42,21 L42,36 L3,36 L3,21 Z M4.5,3 L40.5,3 C41.328,3 42,3.6735 42,4.5 L42,18 L3,18 L3,4.5 C3,3.6735 3.6735,3 4.5,3 Z M3,52.5 L3,39 L42,39 L42,42 C42,42.0315 42.0165,42.0555 42.018,42.087 C35.763,42.774 30.7845,47.7465 30.0885,54 L4.5,54 C3.6735,54 3,53.328 3,52.5 Z M43.5,66 C37.7115,66 33,61.2885 33,55.5 C33,49.7115 37.7115,45 43.5,45 C49.2885,45 54,49.7115 54,55.5 C54,61.2885 49.2885,66 43.5,66 Z" id="Shape"></path>
            </g>
        </g>
    </g>
</svg>