<?xml version="1.0" encoding="UTF-8" standalone="no"?>
<svg width="82px" height="68px" viewBox="0 0 82 68" version="1.1" xmlns="http://www.w3.org/2000/svg" xmlns:xlink="http://www.w3.org/1999/xlink">
    <!-- Generator: Sketch 49.1 (51147) - http://www.bohemiancoding.com/sketch -->
    <title>noun_1295942_cc</title>
    <desc>Created with Sketch.</desc>
    <defs></defs>
    <g id="Page-1" stroke="none" stroke-width="1" fill="none" fill-rule="evenodd">
        <g id="Ambassador-Features" transform="translate(-1049.000000, -2159.000000)" fill="#F9634E" fill-rule="nonzero">
            <g id="noun_1295942_cc" transform="translate(1049.000000, 2159.000000)">
                <path d="M61.6780851,33.1374394 L54.1277802,33.1374394 C54.0166348,29.4529832 53.2579837,25.8793378 51.8964533,22.5432638 C53.3177664,21.762552 54.6523525,20.8223399 55.8858974,19.7360592 C59.2935124,23.2358308 61.4608465,27.9394097 61.6780851,33.1374394 Z M42.0003081,54.4794143 C42.7303308,54.4500327 43.4544596,54.3837142 44.1659581,54.2762614 C46.5025363,51.8778811 48.3793769,49.1521055 49.7476434,46.2047085 C47.3319163,45.0932435 44.7090547,44.4577608 42.0003081,44.3444317 L42.0003081,54.4794143 Z M47.0843653,53.6248287 C49.9244655,52.7677247 52.5043846,51.3103959 54.6826649,49.405627 C53.6251001,48.4847228 52.4909125,47.6746293 51.291048,46.995494 C50.1922248,49.354419 48.7810158,51.5807069 47.0843653,53.6248287 Z M40.2699772,54.4794143 L40.2699772,44.3444317 C37.5679666,44.4544029 34.9459471,45.0898856 32.53443,46.1988321 C33.9069065,49.1479081 35.7946933,51.8778811 38.1472696,54.2846561 C38.845296,54.3845537 39.5534266,54.4500327 40.2699772,54.4794143 Z M27.5859364,49.405627 C29.7785308,51.3204696 32.371922,52.7811563 35.2305465,53.6374208 C33.5204239,51.5907806 32.0991108,49.354419 30.9876574,46.9870992 C29.7852669,47.668753 28.6468692,48.4805254 27.5859364,49.405627 Z M40.2699772,13.5189067 C39.6106833,13.5457699 38.9555994,13.6078911 38.3139876,13.692678 C35.936993,16.0835031 34.027314,18.8025629 32.6262091,21.7440836 C35.0133079,22.8270064 37.600805,23.4456995 40.2699772,23.5565103 L40.2699772,13.5189067 Z M31.0828045,20.9616928 C32.2161502,18.5918546 33.6660916,16.3588509 35.4048426,14.3122107 C32.5049596,15.1550436 29.8669419,16.6148908 27.6457191,18.5431651 C28.7108619,19.4699456 29.8652578,20.280039 31.0828045,20.9616928 Z M42.0003081,13.5189067 L42.0003081,23.5565103 C44.6720062,23.4456995 47.2670815,22.8253275 49.6567063,21.7365283 C48.2657055,18.8000444 46.3602366,16.086861 43.9983981,13.7002333 C43.3416302,13.6078911 42.6756002,13.5457699 42.0003081,13.5189067 Z M51.2017949,20.9541375 C52.4134475,20.2750022 53.5594233,19.4674271 54.6270922,18.5431651 C52.4151315,16.6232856 49.794796,15.1676358 46.9058592,14.3231238 C48.632822,16.3664062 50.0751853,18.5918546 51.2017949,20.9541375 Z M40.2699772,25.2799526 C37.3608322,25.1716603 34.5375721,24.5042776 31.9374448,23.3290125 C30.6862177,26.4249966 29.9848233,29.7316889 29.87452,33.1374394 L40.2716612,33.1374394 L40.2699772,25.2799526 Z M40.2699772,34.8634001 L29.8703099,34.8634001 C29.960405,38.2439663 30.6356971,41.5296717 31.8524018,44.6105453 C34.4769474,43.4109354 37.3305198,42.7284422 40.2691352,42.6184709 L40.2691352,34.8634001 L40.2699772,34.8634001 Z M42.0003081,42.6193104 C44.9422915,42.7309606 47.7992319,43.4142933 50.4288296,44.6164216 C51.6379562,41.5355481 52.3098803,38.2481636 52.4025014,34.8642396 L42.0003081,34.8642396 L42.0003081,42.6193104 Z M42.0003081,33.1374394 L52.3966073,33.1374394 C52.28883,29.7291705 51.5874356,26.4216387 50.3437866,23.3239757 C47.7394492,24.5034381 44.9136632,25.1724998 42.0011501,25.2807921 L42.0011501,33.1374394 L42.0003081,33.1374394 Z M20.5930421,33.1374394 L28.1433471,33.1374394 C28.2578605,29.4588595 29.0165116,25.8852141 30.3839361,22.5457823 C28.962623,21.7659099 27.6213008,20.8240189 26.3843879,19.7360592 C22.9801409,23.2358308 20.8094387,27.9394097 20.5930421,33.1374394 Z M26.3338673,48.2118934 C27.5598341,47.1230942 28.8910521,46.1778453 30.3005771,45.396294 C28.968517,42.0736516 28.2317582,38.5201536 28.1408211,34.8642396 L20.5930421,34.8642396 C20.8085967,40.0345666 22.9548806,44.7179981 26.3338673,48.2118934 Z M61.6780851,34.8634001 L54.1311482,34.8634001 C54.0393691,38.522672 53.3068203,42.0770095 51.9798123,45.4004913 C53.3859692,46.1870795 54.7112932,47.1230942 55.935576,48.2118934 C59.3137207,44.7179981 61.4608465,40.0345666 61.6780851,34.8634001 Z M79.4007147,25.6224584 L75.1435114,30.7676012 C73.5058017,13.5306594 58.9103978,0 41.2003984,0 C30.7577886,0 21.0317294,4.67419725 14.5162549,12.8238213 L13.4662683,14.1367604 L16.100076,16.2295717 L17.1500626,14.9166327 C23.0230834,7.57122576 31.789251,3.35790032 41.1995564,3.35790032 C57.2044852,3.35790032 70.383628,15.6192734 71.8015731,31.2150414 L66.6383669,26.2797674 L64.3068408,28.7024925 L73.7483006,37.7276891 L82,27.7589225 L79.4007147,25.6224584 Z M67.0063253,50.6455316 C61.3050747,59.4096515 51.6581644,64.6420997 41.2012404,64.6420997 C24.2532602,64.6420997 10.4653441,50.8956952 10.4653441,33.9995803 C10.4653441,33.369974 10.4931304,32.7412071 10.5318629,32.1157982 L15.0947159,37.628631 L17.6923172,35.4913275 L9.44230177,25.5225609 L0,34.546918 L2.33068408,36.9721615 L7.1545602,32.3609249 C7.12845789,32.9065837 7.09730351,33.4522425 7.09730351,33.9995803 C7.09730351,52.7475773 22.3957858,68 41.2012404,68 C52.8058242,68 63.5086152,62.1950298 69.8321114,52.4722294 L70.7490604,51.0635902 L67.9224324,49.236053 L67.0063253,50.6455316 Z" id="Shape"></path>
            </g>
        </g>
    </g>
</svg>