<?xml version="1.0" encoding="UTF-8" standalone="no"?>
<svg width="220px" height="157px" viewBox="0 0 220 157" version="1.1" xmlns="http://www.w3.org/2000/svg" xmlns:xlink="http://www.w3.org/1999/xlink">
    <!-- Generator: Sketch 49.1 (51147) - http://www.bohemiancoding.com/sketch -->
    <title>ambassador_logo@2x</title>
    <desc>Created with Sketch.</desc>
    <defs></defs>
    <g id="Page-1" stroke="none" stroke-width="1" fill="none" fill-rule="evenodd">
        <g id="Ambassador-Features" transform="translate(-1220.000000, -240.000000)">
            <rect id="Rectangle" fill="#F4F4F4" x="0" y="80" width="1440" height="3258"></rect>
            <g id="ambassador_logo" transform="translate(1220.000000, 205.000000)" fill-rule="nonzero">
                <g id="Group-17">
                    <g id="Group-17-Copy">
                        <g id="Group-17">
                            <g id="Group-7" transform="translate(0.000000, 0.282051)">
                                <g id="M-Copy-5" transform="translate(0.000000, 105.384615)">
                                    <g id="Group-Copy-18">
                                        <path d="M0.0496487836,26.9717189 L0.0496487836,26.9717189 L0.196725748,37.1002983 C0.223769269,38.9626732 1.64932927,41.0398848 3.38074971,41.7362019 L58.8330847,64.0372018 C60.562972,64.7329023 63.3712622,64.7378177 65.102152,64.0468034 L117.902152,42.9677297 C119.634347,42.2761944 121.046417,40.204312 121.059014,38.3388872 L121.128152,28.1008691 C121.140777,26.2312623 119.754302,24.1520987 118.031436,23.4475867 L62.4333669,0.712500192 C60.7141832,0.00949396539 57.9141898,0.00698136462 56.1876315,0.71025145 L3.12684927,22.3232257 C1.40107917,23.0261747 0.0225813482,25.1076971 0.0496487836,26.9717189 L0.0496487836,26.9717189 Z" id="Rectangle-49" fill="#68C2D6" opacity="0.800000012"></path>
                                        <path d="M56.2359372,0.570508231 C57.9585322,-0.133336066 60.7524042,-0.130087305 62.4786461,0.578758649 L117.939988,23.3528256 C119.665146,24.0612265 119.661152,25.1995958 117.928152,25.8966175 L65.1036088,47.1429263 C63.3719144,47.8394229 60.5688206,47.8395232 58.8402993,47.1421723 L3.30572442,24.7374247 C1.57828849,24.0405117 1.57515051,22.9046522 3.296959,22.2011292 L56.2359372,0.570508231 L56.2359372,0.570508231 Z" id="Rectangle-49-Copy-4" fill="#FFFFFF" opacity="0.480000019"></path>
                                    </g>
                                </g>
                                <g id="M-Copy-2" transform="translate(80.663765, 31.538462)">
                                    <g id="Group-Copy-18">
                                        <path d="M0.127264287,69.0347567 L0.127264287,69.0347567 L0.504265367,94.9590967 C0.573585786,99.7258897 4.2277111,105.042562 8.66584579,106.824802 L150.806325,163.904743 C155.240529,165.685405 162.438995,165.697986 166.875769,163.929318 L302.217541,109.976927 C306.657661,108.206926 310.277208,102.903894 310.309499,98.1292945 L310.486718,71.9248434 C310.519081,67.1395404 306.965142,61.8178718 302.548935,60.0146564 L160.034896,1.82366121 C155.628128,0.0243000305 148.45093,0.017868969 144.025258,1.8179055 L8.01502502,57.1368277 C3.59137382,58.9360425 0.0578825698,64.2637485 0.127264287,69.0347567 L0.127264287,69.0347567 Z" id="Rectangle-49" fill="#68C2D6" opacity="0.800000012"></path>
                                        <path d="M144.14908,1.4602294 C148.564592,-0.341276835 155.726099,-0.332961556 160.15096,1.48134654 L302.314525,59.7721131 C306.736607,61.5852821 306.726372,64.4989653 302.284188,66.283009 L166.879504,120.663442 C162.440667,122.446142 155.255521,122.446399 150.824818,120.661512 L8.47353412,63.3160274 C4.04561291,61.532262 4.03756934,58.6250027 8.4510658,56.8243189 L144.14908,1.4602294 L144.14908,1.4602294 Z" id="Rectangle-49-Copy-4" fill="#FFFFFF" opacity="0.480000019"></path>
                                    </g>
                                </g>
                            </g>
                        </g>
                    </g>
                </g>
            </g>
        </g>
    </g>
</svg>