<?xml version="1.0" encoding="UTF-8" standalone="no"?>
<svg width="75px" height="51px" viewBox="0 0 75 51" version="1.1" xmlns="http://www.w3.org/2000/svg" xmlns:xlink="http://www.w3.org/1999/xlink">
    <!-- Generator: Sketch 49.1 (51147) - http://www.bohemiancoding.com/sketch -->
    <title>Group 10</title>
    <desc>Created with Sketch.</desc>
    <defs></defs>
    <g id="Page-1" stroke="none" stroke-width="1" fill="none" fill-rule="evenodd">
        <g id="Ambassador-Features" transform="translate(-1056.000000, -2485.000000)">
            <g id="Group-10" transform="translate(1057.000000, 2485.000000)">
                <polygon id="Path-2-Copy" fill="#FFEEEB" points="1 20.9414062 17.8867188 20.9414062 17.8867188 39.0195312 27.4335938 39.0195312 27.4335938 16 39.3828125 16 39.3828125 27.5097656 51.8515625 27.5097656 51.8515625 39.0195312 60.5273437 39.0195312 60.5273438 20.9414062 73.625 20.9414062 73.625 50.2929688 1 50.2929688"></polygon>
                <polyline id="Path-2" stroke="#F9634E" stroke-width="2" points="1 19.9414062 17.8867188 19.9414062 17.8867188 38.0195312 27.4335938 38.0195312 27.4335938 15 39.3828125 15 39.3828125 26.5097656 51.8515625 26.5097656 51.8515625 38.0195312 60.5273437 38.0195312 60.5273438 19.9414062 73.625 19.9414062"></polyline>
                <path d="M0.5,1.5 L72.5069441,1.5" id="Line-3" stroke="#FA6B57" stroke-width="2" stroke-linecap="square" stroke-dasharray="5"></path>
            </g>
        </g>
    </g>
</svg>