<?xml version="1.0" encoding="UTF-8" standalone="no"?>
<svg width="95px" height="43px" viewBox="0 0 95 43" version="1.1" xmlns="http://www.w3.org/2000/svg" xmlns:xlink="http://www.w3.org/1999/xlink">
    <!-- Generator: Sketch 49.1 (51147) - http://www.bohemiancoding.com/sketch -->
    <title>noun_96239_cc</title>
    <desc>Created with Sketch.</desc>
    <defs></defs>
    <g id="Page-1" stroke="none" stroke-width="1" fill="none" fill-rule="evenodd">
        <g id="Ambassador-Features" transform="translate(-303.000000, -2172.000000)" fill-rule="nonzero">
            <g id="noun_96239_cc" transform="translate(303.000000, 2173.000000)">
                <g id="Group">
                    <path d="M78.3453119,36.5957031 C57.9994785,41.8808594 37.6585941,41.8808594 17.3177083,36.5957031 C27.2828119,25.8051758 27.2828119,15.019653 17.3177083,4.22912566 C37.6585941,-1.05603059 57.9994785,-1.05603059 78.3453119,4.22912566 C68.3752607,15.019653 68.3752607,25.8051758 78.3453119,36.5957031 Z" id="Shape" stroke="#F9634E" stroke-width="2.5"></path>
                    <polygon id="Shape" fill="#F9634E" points="19.9598952 20.4149173 7.3674476 10.8706055 7.3674476 16.2758789 0 16.2758789 0 24.5339362 7.3674476 24.5339362 7.3674476 29.9592279"></polygon>
                    <polygon id="Shape" fill="#F9634E" points="75.0401048 20.4149173 87.6325524 29.9592279 87.6325524 24.5539544 95 24.5539544 95 16.2958984 87.6325524 16.2958984 87.6325524 10.8706055"></polygon>
                </g>
            </g>
        </g>
    </g>
</svg>