<?xml version="1.0" encoding="UTF-8" standalone="no"?>
<svg width="66px" height="66px" viewBox="0 0 66 66" version="1.1" xmlns="http://www.w3.org/2000/svg" xmlns:xlink="http://www.w3.org/1999/xlink">
    <!-- Generator: Sketch 49.1 (51147) - http://www.bohemiancoding.com/sketch -->
    <title>noun_50814_cc</title>
    <desc>Created with Sketch.</desc>
    <defs></defs>
    <g id="Page-1" stroke="none" stroke-width="1" fill="none" fill-rule="evenodd">
        <g id="Ambassador-Features" transform="translate(-317.000000, -2469.000000)" fill="#F9634E" fill-rule="nonzero">
            <g id="noun_50814_cc" transform="translate(317.000000, 2469.000000)">
                <path d="M20,66 L4,66 C1.79433333,66 0,64.2056667 0,62 L0,46 C0,43.7943333 1.79433333,42 4,42 L20,42 C22.2056667,42 24,43.7943333 24,46 L24,62 C24,64.2056667 22.2056667,66 20,66 Z M4,44.6666667 C3.26483333,44.6666667 2.66666667,45.2648333 2.66666667,46 L2.66666667,62 C2.66666667,62.7351667 3.26483333,63.3333333 4,63.3333333 L20,63.3333333 C20.7351667,63.3333333 21.3333333,62.7351667 21.3333333,62 L21.3333333,46 C21.3333333,45.2648333 20.7351667,44.6666667 20,44.6666667 L4,44.6666667 Z" id="Shape"></path>
                <path d="M62,24 L46,24 C43.7943333,24 42,22.2056667 42,20 L42,4 C42,1.79433333 43.7943333,0 46,0 L62,0 C64.2056667,0 66,1.79433333 66,4 L66,20 C66,22.2056667 64.2056667,24 62,24 Z M46,2.66666667 C45.2648333,2.66666667 44.6666667,3.26483333 44.6666667,4 L44.6666667,20 C44.6666667,20.7351667 45.2648333,21.3333333 46,21.3333333 L62,21.3333333 C62.7351667,21.3333333 63.3333333,20.7351667 63.3333333,20 L63.3333333,4 C63.3333333,3.26483333 62.7351667,2.66666667 62,2.66666667 L46,2.66666667 Z" id="Shape"></path>
                <path d="M28,56 L28,53.3529412 C28.0036069,53.3529412 29.135485,53.3344118 30.2032977,52.7965625 C31.4945662,52.1463787 32.122166,51.0296507 32.122166,49.3823529 L32.122166,17.6176471 C32.122166,14.9565257 33.3679189,12.8908272 35.6297858,11.8015625 C37.2472207,11.0225 38.8186247,11 38.9924427,11 L39,13.6470588 C38.988664,13.6470588 37.8569577,13.6655882 36.7889732,14.2034375 C35.4978765,14.8536213 34.8702767,15.9703493 34.8702767,17.6176471 L34.8702767,49.3823529 C34.8702767,52.0434743 33.6245238,54.1091728 31.3626569,55.1984375 C29.745222,55.9775 28.173818,56 28,56 Z" id="Shape"></path>
            </g>
        </g>
    </g>
</svg>