<?xml version="1.0" encoding="UTF-8" standalone="no"?>
<svg width="96px" height="69px" viewBox="0 0 96 69" version="1.1" xmlns="http://www.w3.org/2000/svg" xmlns:xlink="http://www.w3.org/1999/xlink">
    <!-- Generator: Sketch 49.1 (51147) - http://www.bohemiancoding.com/sketch -->
    <title>Group 25</title>
    <desc>Created with Sketch.</desc>
    <defs></defs>
    <g id="Page-1" stroke="none" stroke-width="1" fill="none" fill-rule="evenodd">
        <g id="Ambassador-Features" transform="translate(-685.000000, -1855.000000)">
            <g id="Group-25" transform="translate(688.000000, 1855.000000)">
                <g id="Group-9">
                    <g id="Group-13" transform="translate(0.000000, 10.388889)">
                        <path d="M0.525004849,45.3428859 C4.59140702,41.8043267 8.12349846,32.9023999 11.1212792,18.6371056 C15.6179502,-2.76083587 37.5652081,-4.46321637 42.2100222,7.0869446 C46.8548362,18.6371056 46.4382353,36.7380951 42.2100222,45.3428859 C39.3912134,51.0794131 25.4962077,51.0794131 0.525004849,45.3428859 Z" id="Path-3" stroke="#F9634E" stroke-width="3"></path>
                        <path d="M20.8232323,50.2000432 L20.8232323,56.2012006" id="Line-2" stroke="#F9634E" stroke-width="3" stroke-linecap="square"></path>
                        <path d="M27.9626263,50.2000432 L27.9626263,56.2012006" id="Line-2-Copy" stroke="#F9634E" stroke-width="3" stroke-linecap="square"></path>
                        <ellipse id="Oval" fill="#F9634E" cx="34.4067178" cy="14.0582378" rx="4.30083972" ry="4.32561163"></ellipse>
                        <ellipse id="Oval-Copy" fill="#FFFFFF" cx="37.6323476" cy="12.9768349" rx="2.15041986" ry="2.16280581"></ellipse>
                        <polyline id="Path-4" fill="#F9634E" points="43.1230863 8.45581898 52.7999757 7.45099177 46.6183381 12.3780356"></polyline>
                    </g>
                    <g id="Group-24" transform="translate(57.303030, 0.000000)">
                        <rect id="Rectangle-5" fill="#F9634E" x="0" y="0" width="35.5536084" height="22.7576975"></rect>
                        <path d="M9.59175168,17.9350213 L9.00992328,17.9350213 C8.30288776,17.9350213 7.79348613,17.752346 7.4817031,17.38699 C7.16992008,17.0216339 7.01403091,16.3439674 7.01403091,15.3539703 L7.01403091,14.6751186 C7.01403091,13.7935497 6.89373847,13.179525 6.65315,12.833026 C6.41256152,12.486527 6.0246798,12.3132801 5.48949319,12.3132801 L5.48949319,11.1606464 C6.0246798,11.1606464 6.41256152,10.9873995 6.65315,10.6409005 C6.89373847,10.2944015 7.01403091,9.68037678 7.01403091,8.79880792 L7.01403091,8.11288478 C7.01403091,7.12760193 7.16992008,6.4522926 7.4817031,6.08693652 C7.79348613,5.72158045 8.30288776,5.53890515 9.00992328,5.53890515 L9.59175168,5.53890515 L9.59175168,6.46525496 L9.37080419,6.46525496 C8.91417708,6.46525496 8.59626137,6.55953898 8.4170475,6.74810986 C8.23783364,6.93668074 8.14822805,7.38688696 8.14822805,8.09874203 L8.14822805,8.55130988 C8.14822805,9.52716418 8.03039056,10.2460799 7.79471206,10.7080785 C7.55903355,11.1700772 7.15887709,11.5118568 6.59423067,11.7334276 C7.15887709,11.9597126 7.55903355,12.3038493 7.79471206,12.765848 C8.03039056,13.2278466 8.14822805,13.9467623 8.14822805,14.9226166 L8.14822805,15.3751844 C8.14822805,16.0870395 8.23783364,16.5372457 8.4170475,16.7258166 C8.59626137,16.9143875 8.91417708,17.0086715 9.37080419,17.0086715 L9.59175168,17.0086715 L9.59175168,17.9350213 Z M20.7029557,13.8972676 C20.963184,13.8972676 21.1816744,13.9821232 21.3584332,14.151837 C21.5351921,14.3215508 21.6235702,14.5313327 21.6235702,14.7811892 C21.6235702,15.0357598 21.5339647,15.2537916 21.3547508,15.4352911 C21.1755369,15.6167906 20.9582741,15.707539 20.7029557,15.707539 C20.4525473,15.707539 20.2389668,15.6167906 20.0622079,15.4352911 C19.8854491,15.2537916 19.7970709,15.0357598 19.7970709,14.7811892 C19.7970709,14.5266185 19.8842216,14.315658 20.0585255,14.1483013 C20.2328294,13.9809446 20.4476373,13.8972676 20.7029557,13.8972676 Z M17.6980697,13.8972676 C17.9582981,13.8972676 18.1767884,13.9821232 18.3535473,14.151837 C18.5303062,14.3215508 18.6186843,14.5313327 18.6186843,14.7811892 C18.6186843,15.0357598 18.5290787,15.2537916 18.3498649,15.4352911 C18.170651,15.6167906 17.9533881,15.707539 17.6980697,15.707539 C17.4476613,15.707539 17.2353084,15.6167906 17.0610045,15.4352911 C16.8867006,15.2537916 16.7995499,15.0357598 16.7995499,14.7811892 C16.7995499,14.5266185 16.8854731,14.315658 17.057322,14.1483013 C17.2291709,13.9809446 17.4427514,13.8972676 17.6980697,13.8972676 Z M14.6563592,13.8972676 C14.9116776,13.8972676 15.1289405,13.9821232 15.3081543,14.151837 C15.4873682,14.3215508 15.5769738,14.5313327 15.5769738,14.7811892 C15.5769738,15.0357598 15.4873682,15.2537916 15.3081543,15.4352911 C15.1289405,15.6167906 14.9116776,15.707539 14.6563592,15.707539 C14.4010408,15.707539 14.1862329,15.6167906 14.011929,15.4352911 C13.8376251,15.2537916 13.7504745,15.0357598 13.7504745,14.7811892 C13.7504745,14.5266185 13.8376251,14.315658 14.011929,14.1483013 C14.1862329,13.9809446 14.4010408,13.8972676 14.6563592,13.8972676 Z M29.847727,12.3132801 C29.3174503,12.3132801 28.9307961,12.486527 28.6877526,12.833026 C28.4447092,13.179525 28.3231892,13.7935497 28.3231892,14.6751186 L28.3231892,15.3539703 C28.3231892,16.3439674 28.1685275,17.0216339 27.8591995,17.38699 C27.5498715,17.752346 27.0416973,17.9350213 26.3346618,17.9350213 L25.7454685,17.9350213 L25.7454685,17.0086715 L25.9737809,17.0086715 C26.430408,17.0086715 26.7483237,16.9143875 26.9275376,16.7258166 C27.1067514,16.5372457 27.196357,16.0870395 27.196357,15.3751844 L27.196357,14.9226166 C27.196357,13.9467623 27.3141945,13.2278466 27.549873,12.765848 C27.7855515,12.3038493 28.185708,11.9597126 28.7503544,11.7334276 C28.185708,11.5118568 27.7855515,11.1700772 27.549873,10.7080785 C27.3141945,10.2460799 27.196357,9.52716418 27.196357,8.55130988 L27.196357,8.09874203 C27.196357,7.38688696 27.1067514,6.93668074 26.9275376,6.74810986 C26.7483237,6.55953898 26.430408,6.46525496 25.9737809,6.46525496 L25.7454685,6.46525496 L25.7454685,5.53890515 L26.3346618,5.53890515 C27.0416973,5.53890515 27.5498715,5.72158045 27.8591995,6.08693652 C28.1685275,6.4522926 28.3231892,7.12760193 28.3231892,8.11288478 L28.3231892,8.79880792 C28.3231892,9.59551989 28.4312069,10.1883307 28.6472456,10.5772581 C28.8632842,10.9661856 29.2634407,11.1606464 29.847727,11.1606464 L29.847727,12.3132801 Z" id="{…}" fill="#FFFFFF"></path>
                    </g>
                </g>
            </g>
        </g>
    </g>
</svg>