<?xml version="1.0" encoding="UTF-8" standalone="no"?>
<svg width="59px" height="51px" viewBox="0 0 59 51" version="1.1" xmlns="http://www.w3.org/2000/svg" xmlns:xlink="http://www.w3.org/1999/xlink">
    <!-- Generator: Sketch 49.1 (51147) - http://www.bohemiancoding.com/sketch -->
    <title>noun_699774_cc</title>
    <desc>Created with Sketch.</desc>
    <defs></defs>
    <g id="Page-1" stroke="none" stroke-width="1" fill="none" fill-rule="evenodd">
        <g id="Ambassador-Features" transform="translate(-691.000000, -2168.000000)" fill="#F9634E" fill-rule="nonzero">
            <g id="noun_699774_cc" transform="translate(691.000000, 2168.000000)">
                <g id="Group">
                    <g id="Shape">
                        <path d="M5.82716049,2.91428571 C4.22032099,2.91428571 2.91358025,4.22134286 2.91358025,5.82857143 C2.91358025,7.4358 4.22032099,8.74285714 5.82716049,8.74285714 C7.434,8.74285714 8.74074074,7.4358 8.74074074,5.82857143 C8.74074074,4.22134286 7.434,2.91428571 5.82716049,2.91428571 M5.82716049,11.6571429 C2.61420988,11.6571429 0,9.0423 0,5.82857143 C0,2.61484286 2.61420988,0 5.82716049,0 C9.04011111,0 11.654321,2.61484286 11.654321,5.82857143 C11.654321,9.0423 9.04011111,11.6571429 5.82716049,11.6571429"></path>
                        <path d="M52.4444444,42.2571429 C50.8376049,42.2571429 49.5308642,43.5642 49.5308642,45.1714286 C49.5308642,46.7786571 50.8376049,48.0857143 52.4444444,48.0857143 C54.051284,48.0857143 55.3580247,46.7786571 55.3580247,45.1714286 C55.3580247,43.5642 54.051284,42.2571429 52.4444444,42.2571429 M52.4444444,51 C49.2314938,51 46.617284,48.3851571 46.617284,45.1714286 C46.617284,41.9577 49.2314938,39.3428571 52.4444444,39.3428571 C55.6573951,39.3428571 58.2716049,41.9577 58.2716049,45.1714286 C58.2716049,48.3851571 55.6573951,51 52.4444444,51"></path>
                        <path d="M39.5614667,46.6285714 L10.9207543,46.6285714 C5.30045802,46.6285714 0.728322222,42.0531429 0.728322222,36.4285714 L0.728322222,34.2428571 C0.728322222,28.6182857 5.30191481,24.0428571 10.9229395,24.0428571 L24.766816,24.0428571 L35.6912852,24.0428571 L48.8016679,24.0428571 C52.8187667,24.0428571 56.0863469,20.7744857 56.0863469,16.7571429 L56.0863469,14.5714286 C56.0863469,10.5540857 52.8202235,7.28571429 48.8045815,7.28571429 L15.2969519,7.28571429 C14.4928037,7.28571429 13.8401617,6.63291429 13.8401617,5.82857143 C13.8401617,5.02422857 14.4928037,4.37142857 15.2969519,4.37142857 L48.8045815,4.37142857 C54.427063,4.37142857 58.9999272,8.94685714 58.9999272,14.5714286 L58.9999272,16.7571429 C58.9999272,22.3817143 54.4256062,26.9571429 48.8016679,26.9571429 L35.6912852,26.9571429 L24.766816,26.9571429 L10.9229395,26.9571429 C6.90802593,26.9571429 3.64190247,30.2255143 3.64190247,34.2428571 L3.64190247,36.4285714 C3.64190247,40.4459143 6.90729753,43.7142857 10.9207543,43.7142857 L39.5615192,43.7142857 L37.9326296,42.0846171 C37.3615679,41.5126886 37.3557407,40.5932314 37.9282593,40.0191171 C38.4971358,39.4501029 39.4229259,39.4537457 39.9932593,40.0234886 L44.1050494,44.1370029 L44.1072346,44.1391886 L44.1094198,44.1413743 C44.2470864,44.2790743 44.3497901,44.4386314 44.4204444,44.6083886 C44.4219012,44.61276 44.4248148,44.6164029 44.427,44.6200457 C44.4430247,44.6593886 44.4503086,44.6987314 44.4626914,44.7388029 C44.6192963,45.2393314 44.5078519,45.8032457 44.1094198,46.2017743 L44.1072346,46.20396 L44.1050494,46.2061457 L39.9932593,50.3189314 C39.4214691,50.8901314 38.5007778,50.89596 37.9282593,50.3233029 C37.3593827,49.7542886 37.3630247,48.8275457 37.9326296,48.2578029 L39.5614667,46.6285714 Z"></path>
                    </g>
                </g>
            </g>
        </g>
    </g>
</svg>