<?xml version="1.0" encoding="UTF-8"?>
<svg width="321px" height="80px" viewBox="0 0 321 80" version="1.1" xmlns="http://www.w3.org/2000/svg" xmlns:xlink="http://www.w3.org/1999/xlink">
    <!-- Generator: Sketch 49.3 (51167) - http://www.bohemiancoding.com/sketch -->
    <title>ambassador logo@1x</title>
    <desc>Created with Sketch.</desc>
    <defs>
        <rect id="path-1" x="0" y="0" width="79.8869875" height="79.7337056"></rect>
    </defs>
    <g id="Page-1" stroke="none" stroke-width="1" fill="none" fill-rule="evenodd">
        <g id="ambassador-logo">
            <path d="M108.924,42.076 L108.528,40.456 C108.239999,39.3279944 107.952001,38.1040066 107.664,36.784 C107.375999,35.4639934 107.088001,34.2160059 106.8,33.04 L106.656,33.04 C106.391999,34.240006 106.122001,35.4939935 105.846,36.802 C105.569999,38.1100065 105.288001,39.3279944 105,40.456 L104.604,42.076 L108.924,42.076 Z M110.04,46.864 L103.488,46.864 L102.336,51.832 L96,51.832 L103.128,28.432 L110.616,28.432 L117.744,51.832 L111.192,51.832 L110.04,46.864 Z M119.976,28.432 L126.384,28.432 L130.056,38.152 L131.352,41.968 L131.496,41.968 L132.792,38.152 L136.32,28.432 L142.728,28.432 L142.728,51.832 L136.968,51.832 L136.968,44.92 C136.968,44.319997 136.998,43.6600036 137.058,42.94 C137.118,42.2199964 137.184,41.4820038 137.256,40.726 C137.328,39.9699962 137.412,39.2320036 137.508,38.512 C137.604,37.7919964 137.688,37.1440029 137.76,36.568 L137.616,36.568 L135.672,42.04 L132.432,49.924 L130.128,49.924 L126.888,42.04 L125.016,36.568 L124.872,36.568 C124.944,37.1440029 125.028,37.7919964 125.124,38.512 C125.22,39.2320036 125.304,39.9699962 125.376,40.726 C125.448,41.4820038 125.514,42.2199964 125.574,42.94 C125.634,43.6600036 125.664,44.319997 125.664,44.92 L125.664,51.832 L119.976,51.832 L119.976,28.432 Z M147.912,28.432 L156.336,28.432 C157.560006,28.432 158.711995,28.5219991 159.792,28.702 C160.872005,28.8820009 161.807996,29.1879978 162.6,29.62 C163.392004,30.0520022 164.021998,30.6459962 164.49,31.402 C164.958002,32.1580038 165.192,33.1119942 165.192,34.264 C165.192,34.7680025 165.120001,35.2779974 164.976,35.794 C164.831999,36.3100026 164.598002,36.8019977 164.274,37.27 C163.949998,37.7380023 163.542002,38.1519982 163.05,38.512 C162.557998,38.8720018 161.976003,39.1359992 161.304,39.304 L161.304,39.448 C162.960008,39.7840017 164.201996,40.3899956 165.03,41.266 C165.858004,42.1420044 166.272,43.3599922 166.272,44.92 C166.272,46.120006 166.026002,47.1579956 165.534,48.034 C165.041998,48.9100044 164.382004,49.6299972 163.554,50.194 C162.725996,50.7580028 161.748006,51.1719987 160.62,51.436 C159.491994,51.7000013 158.304006,51.832 157.056,51.832 L147.912,51.832 L147.912,28.432 Z M156.192,37.648 C157.200005,37.648 157.943998,37.4200023 158.424,36.964 C158.904002,36.5079977 159.144,35.9200036 159.144,35.2 C159.144,34.4799964 158.904002,33.9640016 158.424,33.652 C157.943998,33.3399984 157.200005,33.184 156.192,33.184 L154.104,33.184 L154.104,37.648 L156.192,37.648 Z M156.624,47.08 C159.024012,47.08 160.224,46.1920089 160.224,44.416 C160.224,43.5519957 159.930003,42.9280019 159.342,42.544 C158.753997,42.1599981 157.848006,41.968 156.624,41.968 L154.104,41.968 L154.104,47.08 L156.624,47.08 Z M179.916,42.076 L179.52,40.456 C179.231999,39.3279944 178.944001,38.1040066 178.656,36.784 C178.367999,35.4639934 178.080001,34.2160059 177.792,33.04 L177.648,33.04 C177.383999,34.240006 177.114001,35.4939935 176.838,36.802 C176.561999,38.1100065 176.280001,39.3279944 175.992,40.456 L175.596,42.076 L179.916,42.076 Z M181.032,46.864 L174.48,46.864 L173.328,51.832 L166.992,51.832 L174.12,28.432 L181.608,28.432 L188.736,51.832 L182.184,51.832 L181.032,46.864 Z M193.056,44.668 C193.896004,45.3400034 194.801995,45.8859979 195.774,46.306 C196.746005,46.7260021 197.663996,46.936 198.528,46.936 C199.464005,46.936 200.141998,46.7920014 200.562,46.504 C200.982002,46.2159986 201.192,45.8080026 201.192,45.28 C201.192,44.9919986 201.120001,44.752001 200.976,44.56 C200.831999,44.367999 200.622001,44.1880008 200.346,44.02 C200.069999,43.8519992 199.740002,43.6900008 199.356,43.534 C198.971998,43.3779992 198.528003,43.204001 198.024,43.012 L195.108,41.788 C194.483997,41.5479988 193.884003,41.230002 193.308,40.834 C192.731997,40.437998 192.228002,39.9700027 191.796,39.43 C191.363998,38.8899973 191.022001,38.2720035 190.77,37.576 C190.517999,36.8799965 190.392,36.1120042 190.392,35.272 C190.392,34.263995 190.607998,33.3220044 191.04,32.446 C191.472002,31.5699956 192.071996,30.8020033 192.84,30.142 C193.608004,29.4819967 194.525995,28.9600019 195.594,28.576 C196.662005,28.1919981 197.831994,28 199.104,28 C200.448007,28 201.809993,28.2519975 203.19,28.756 C204.570007,29.2600025 205.799995,30.0519946 206.88,31.132 L203.784,35.02 C202.991996,34.4679972 202.230004,34.0480014 201.498,33.76 C200.765996,33.4719986 199.968004,33.328 199.104,33.328 C198.335996,33.328 197.736002,33.4599987 197.304,33.724 C196.871998,33.9880013 196.656,34.3839974 196.656,34.912 C196.656,35.4640028 196.961997,35.8899985 197.574,36.19 C198.186003,36.4900015 199.031995,36.843998 200.112,37.252 L202.956,38.368 C204.420007,38.9440029 205.547996,39.7479948 206.34,40.78 C207.132004,41.8120052 207.528,43.1439918 207.528,44.776 C207.528,45.7600049 207.324002,46.7079954 206.916,47.62 C206.507998,48.5320046 205.914004,49.3299966 205.134,50.014 C204.353996,50.6980034 203.400006,51.243998 202.272,51.652 C201.143994,52.060002 199.848007,52.264 198.384,52.264 C196.895993,52.264 195.366008,51.9940027 193.794,51.454 C192.221992,50.9139973 190.800006,50.0680058 189.528,48.916 L193.056,44.668 Z M213.36,44.668 C214.200004,45.3400034 215.105995,45.8859979 216.078,46.306 C217.050005,46.7260021 217.967996,46.936 218.832,46.936 C219.768005,46.936 220.445998,46.7920014 220.866,46.504 C221.286002,46.2159986 221.496,45.8080026 221.496,45.28 C221.496,44.9919986 221.424001,44.752001 221.28,44.56 C221.135999,44.367999 220.926001,44.1880008 220.65,44.02 C220.373999,43.8519992 220.044002,43.6900008 219.66,43.534 C219.275998,43.3779992 218.832003,43.204001 218.328,43.012 L215.412,41.788 C214.787997,41.5479988 214.188003,41.230002 213.612,40.834 C213.035997,40.437998 212.532002,39.9700027 212.1,39.43 C211.667998,38.8899973 211.326001,38.2720035 211.074,37.576 C210.821999,36.8799965 210.696,36.1120042 210.696,35.272 C210.696,34.263995 210.911998,33.3220044 211.344,32.446 C211.776002,31.5699956 212.375996,30.8020033 213.144,30.142 C213.912004,29.4819967 214.829995,28.9600019 215.898,28.576 C216.966005,28.1919981 218.135994,28 219.408,28 C220.752007,28 222.113993,28.2519975 223.494,28.756 C224.874007,29.2600025 226.103995,30.0519946 227.184,31.132 L224.088,35.02 C223.295996,34.4679972 222.534004,34.0480014 221.802,33.76 C221.069996,33.4719986 220.272004,33.328 219.408,33.328 C218.639996,33.328 218.040002,33.4599987 217.608,33.724 C217.175998,33.9880013 216.96,34.3839974 216.96,34.912 C216.96,35.4640028 217.265997,35.8899985 217.878,36.19 C218.490003,36.4900015 219.335995,36.843998 220.416,37.252 L223.26,38.368 C224.724007,38.9440029 225.851996,39.7479948 226.644,40.78 C227.436004,41.8120052 227.832,43.1439918 227.832,44.776 C227.832,45.7600049 227.628002,46.7079954 227.22,47.62 C226.811998,48.5320046 226.218004,49.3299966 225.438,50.014 C224.657996,50.6980034 223.704006,51.243998 222.576,51.652 C221.447994,52.060002 220.152007,52.264 218.688,52.264 C217.199993,52.264 215.670008,51.9940027 214.098,51.454 C212.525992,50.9139973 211.104006,50.0680058 209.832,48.916 L213.36,44.668 Z M241.548,42.076 L241.152,40.456 C240.863999,39.3279944 240.576001,38.1040066 240.288,36.784 C239.999999,35.4639934 239.712001,34.2160059 239.424,33.04 L239.28,33.04 C239.015999,34.240006 238.746001,35.4939935 238.47,36.802 C238.193999,38.1100065 237.912001,39.3279944 237.624,40.456 L237.228,42.076 L241.548,42.076 Z M242.664,46.864 L236.112,46.864 L234.96,51.832 L228.624,51.832 L235.752,28.432 L243.24,28.432 L250.368,51.832 L243.816,51.832 L242.664,46.864 Z M252.6,28.432 L259.512,28.432 C261.288009,28.432 262.913993,28.6479978 264.39,29.08 C265.866007,29.5120022 267.131995,30.1959953 268.188,31.132 C269.244005,32.0680047 270.065997,33.2679927 270.654,34.732 C271.242003,36.1960073 271.536,37.9599897 271.536,40.024 C271.536,42.0880103 271.248003,43.8639926 270.672,45.352 C270.095997,46.8400074 269.286005,48.0639952 268.242,49.024 C267.197995,49.9840048 265.962007,50.6919977 264.534,51.148 C263.105993,51.6040023 261.552008,51.832 259.872,51.832 L252.6,51.832 L252.6,28.432 Z M259.152,46.864 C259.992004,46.864 260.783996,46.762001 261.528,46.558 C262.272004,46.353999 262.913997,46.0000025 263.454,45.496 C263.994003,44.9919975 264.419998,44.2960044 264.732,43.408 C265.044002,42.5199956 265.2,41.3920068 265.2,40.024 C265.2,38.6559932 265.044002,37.5400043 264.732,36.676 C264.419998,35.8119957 263.994003,35.1400024 263.454,34.66 C262.913997,34.1799976 262.272004,33.8500009 261.528,33.67 C260.783996,33.4899991 259.992004,33.4 259.152,33.4 L258.792,33.4 L258.792,46.864 L259.152,46.864 Z M285.576,52.264 C283.943992,52.264 282.462007,51.9880028 281.13,51.436 C279.797993,50.8839972 278.658005,50.0860052 277.71,49.042 C276.761995,47.9979948 276.024003,46.7140076 275.496,45.19 C274.967997,43.6659924 274.704,41.9440096 274.704,40.024 C274.704,38.1039904 274.967997,36.3940075 275.496,34.894 C276.024003,33.3939925 276.761995,32.1340051 277.71,31.114 C278.658005,30.0939949 279.797993,29.3200026 281.13,28.792 C282.462007,28.2639974 283.943992,28 285.576,28 C287.184008,28 288.659993,28.2639974 290.004,28.792 C291.348007,29.3200026 292.493995,30.0999948 293.442,31.132 C294.390005,32.1640052 295.127997,33.4239926 295.656,34.912 C296.184003,36.4000074 296.448,38.1039904 296.448,40.024 C296.448,41.9440096 296.184003,43.6659924 295.656,45.19 C295.127997,46.7140076 294.390005,47.9979948 293.442,49.042 C292.493995,50.0860052 291.348007,50.8839972 290.004,51.436 C288.659993,51.9880028 287.184008,52.264 285.576,52.264 Z M285.576,46.936 C286.992007,46.936 288.101996,46.3180062 288.906,45.082 C289.710004,43.8459938 290.112,42.1600107 290.112,40.024 C290.112,37.8879893 289.710004,36.2380058 288.906,35.074 C288.101996,33.9099942 286.992007,33.328 285.576,33.328 C284.159993,33.328 283.050004,33.9099942 282.246,35.074 C281.441996,36.2380058 281.04,37.8879893 281.04,40.024 C281.04,42.1600107 281.441996,43.8459938 282.246,45.082 C283.050004,46.3180062 284.159993,46.936 285.576,46.936 Z M306.816,39.088 L309.048,39.088 C311.544012,39.088 312.792,38.0560103 312.792,35.992 C312.792,34.983995 312.474003,34.2880019 311.838,33.904 C311.201997,33.5199981 310.272006,33.328 309.048,33.328 L306.816,33.328 L306.816,39.088 Z M313.224,51.832 L309.192,43.984 L306.816,43.984 L306.816,51.832 L300.624,51.832 L300.624,28.432 L309.48,28.432 C310.728006,28.432 311.921994,28.5519988 313.062,28.792 C314.202006,29.0320012 315.197996,29.4399971 316.05,30.016 C316.902004,30.5920029 317.579997,31.3659951 318.084,32.338 C318.588003,33.3100049 318.84,34.5279927 318.84,35.992 C318.84,37.6720084 318.498003,39.0639945 317.814,40.168 C317.129997,41.2720055 316.212006,42.1359969 315.06,42.76 L320.136,51.832 L313.224,51.832 Z" id="Ambassador" fill="#222222"></path>
            <g id="front">
                <mask id="mask-2" fill="white">
                    <use xlink:href="#path-1"></use>
                </mask>
                <use id="Mask" fill="#FB5B4A" xlink:href="#path-1"></use>
                <g id="front-copy" mask="url(#mask-2)">
                    <g transform="translate(-44.771828, -2.628584)" id="Group-2">
                        <g>
                            <g id="Group-17-Copy-2" transform="translate(0.000000, 43.971653)">
                                <g id="Group-16">
                                    <path d="M61.2115188,0.0242565476 C63.9365952,3.45165033 71.5217928,7.91871897 80.9956345,11.3669153 C90.7779466,14.9273858 99.7154464,16.3613107 103.846649,15.3022927 C109.523813,22.9412247 112.32334,32.8617053 111.037563,43.7040017 L102.555358,115.230074 C101.124033,127.299699 90.122888,137.084063 77.9713291,137.084063 L56.929451,137.084063 C44.7833918,137.084063 33.7777064,127.307786 32.3454225,115.230074 L23.8632169,43.7040017 C21.0591662,20.0588859 37.6893222,0.799487131 61.2115188,0.0242565476 Z M70.0213558,0 L72.2122832,0 C82.2000962,0 91.0189231,3.30441938 97.744266,8.87235047 C96.9860997,10.8904029 90.1403006,10.2561976 82.4345803,7.45154477 C76.1527062,5.16512956 71.2358109,2.14108066 70.0213558,-5.38458167e-15 Z" id="Combined-Shape" fill="#000000"></path>
                                    <g id="Group" transform="translate(32.699457, 22.549627)">
                                        <g id="Group-3" transform="translate(36.391358, -0.000000)">
                                            <path d="M15.9656306,22.25906 C23.3100943,22.25906 29.2639585,16.2920825 29.2639585,8.93144278 C29.2639585,1.57080304 2.6673027,8.93144278 2.6673027,8.93144278 C2.6673027,8.93144278 8.6211669,22.25906 15.9656306,22.25906 Z" id="Oval-3-Copy-4" fill="#FFFFFF" transform="translate(15.965631, 13.959554) rotate(-30.000000) translate(-15.965631, -13.959554) "></path>
                                            <ellipse id="Oval-3-Copy-5" fill="#000000" cx="9.56260359" cy="12.7799777" rx="4.27446254" ry="4.28387696"></ellipse>
                                        </g>
                                        <g id="Group-3-Copy" transform="translate(16.937494, 14.177215) scale(-1, 1) translate(-16.937494, -14.177215) translate(0.734962, -0.000000)">
                                            <path d="M15.9656306,22.25906 C23.3100943,22.25906 29.2639585,16.2920825 29.2639585,8.93144278 C29.2639585,1.57080304 2.6673027,8.93144278 2.6673027,8.93144278 C2.6673027,8.93144278 8.6211669,22.25906 15.9656306,22.25906 Z" id="Oval-3-Copy-4" fill="#FFFFFF" transform="translate(15.965631, 13.959554) rotate(-30.000000) translate(-15.965631, -13.959554) "></path>
                                            <ellipse id="Oval-3-Copy-5" fill="#000000" cx="9.56260359" cy="12.7799777" rx="4.27446254" ry="4.28387696"></ellipse>
                                        </g>
                                    </g>
                                </g>
                            </g>
                            <g id="Group" transform="translate(90.336007, 30.770354) rotate(20.000000) translate(-90.336007, -30.770354) translate(65.525881, 7.479215)" fill-rule="nonzero">
                                <path d="M38.8307613,34.9058968 C38.9097252,36.0783886 39.0195175,37.2448815 39.1655466,38.3950141 C39.1655466,40.5567616 32.533121,42.3089551 24.3511644,42.3089551 C16.1692078,42.3089551 9.5367822,40.5567616 9.5367822,38.3950141 L9.53732305,38.3950141 C9.683893,37.2427001 9.79368525,36.0745711 9.87210829,34.9009887 C3.88329247,36.0707537 0,37.9467405 0,40.0632244 C0,43.6085122 10.8964754,46.4824803 24.338184,46.4824803 C37.7804335,46.4824803 48.6763681,43.6085122 48.6763681,40.0632244 C48.6763681,37.9500126 44.8044334,36.0756618 38.8307613,34.9058968 Z" id="Shape" fill="#000000"></path>
                                <path d="M39.9232754,11.2177465 C39.4619316,13.5087408 33.5639783,15.3312837 24.3506235,15.3312837 C15.1388913,15.3312837 9.23931551,13.5098315 8.77797171,11.2193825 C8.77797171,11.2193825 10.5784565,25.3040076 9.944582,38.9981656 C10.597927,40.9385031 16.7965921,42.460561 24.3506235,42.460561 C31.9068184,42.460561 38.1060243,40.9385031 38.7572059,38.9970749 C38.124954,25.3269121 39.9113767,11.2679182 39.9232754,11.2177465 Z" id="Shape" fill="#FB5B4A"></path>
                                <path d="M41.545821,5.76429655 C41.0844772,8.05529086 33.5639783,9.87783382 24.3506235,9.87783382 C15.1388913,9.87783382 7.6167699,8.05638155 7.15542611,5.76593259 C7.15542611,5.76593259 10.5784565,19.8505577 9.944582,33.5447157 C10.597927,35.4850532 16.7965921,37.0071111 24.3506235,37.0071111 C31.9068184,37.0071111 38.1060243,35.4850532 38.7572059,33.543625 C38.124954,19.8734622 41.5339223,5.81446829 41.545821,5.76429655 Z" id="Shape-Copy" fill="#000000"></path>
                                <path d="M41.5679958,4.75268159 C41.5679958,4.82575782 41.5615056,4.89774336 41.5469027,4.9697289 C41.0979984,7.26290459 33.5704685,9.08762893 24.3511644,9.08762893 C15.1394322,9.08762893 7.61731075,7.26617666 7.15596695,4.9757277 C7.14082319,4.90210612 7.13379216,4.82739386 7.13379216,4.75268159 C7.13379216,2.35861708 14.8425063,0.417734263 24.3511644,0.417734263 C33.8598225,0.417734263 41.5679958,2.35807174 41.5679958,4.75268159 Z" id="Shape" fill="#000000"></path>
                            </g>
                            <ellipse id="Oval-10" stroke="#FFFFFF" stroke-width="2" fill-opacity="0.200000018" fill="#FFFFFF" cx="52.4686493" cy="76.9503919" rx="15.0652557" ry="15.1806896"></ellipse>
                            <path d="M37.6018919,73.2860875 C37.6018919,73.2860875 33.2953798,82.575138 40.7498867,100.137746 C48.2043936,117.700355 46.6114324,125.633293 46.6114324,125.633293" id="Path-9" stroke="#FFFFFF" stroke-width="2"></path>
                        </g>
                    </g>
                </g>
            </g>
        </g>
    </g>
</svg>