<?xml version="1.0" encoding="UTF-8" standalone="no"?>
<svg width="381px" height="370px" viewBox="0 0 381 370" version="1.1" xmlns="http://www.w3.org/2000/svg" xmlns:xlink="http://www.w3.org/1999/xlink">
    <!-- Generator: Sketch 49.1 (51147) - http://www.bohemiancoding.com/sketch -->
    <title>Group 8</title>
    <desc>Created with Sketch.</desc>
    <defs>
        <filter x="-14.9%" y="-133.5%" width="129.9%" height="367.0%" filterUnits="objectBoundingBox" id="filter-1">
            <feGaussianBlur stdDeviation="4" in="SourceGraphic"></feGaussianBlur>
        </filter>
        <polygon id="path-2" points="37.6686865 123.454819 32.2440429 69.1521007 85.1634756 147.668589 134.241065 71.4034555 129.761691 116.891944 125.637664 160.958216 109.770458 176.159738 94.6304591 175.16087 84.4225487 169.432987 75.6054938 174.162002 61.5651242 176.159738 42.5499595 161.86344"></polygon>
        <path d="M96.9776715,178.927094 L96.9776715,178.345698 C96.9776715,177.748413 97.1610551,177.294103 97.5278279,176.982752 C97.8946006,176.671402 98.3774547,176.496667 98.9764046,176.458543 C99.2388658,176.43948 99.4945934,176.429949 99.7435951,176.429949 C100.665574,176.429949 101.452946,176.544321 102.105734,176.773068 L102.105734,178.212263 C101.493325,178.148722 100.685764,178.116952 99.6830274,178.116952 C99.3869173,178.116952 99.188392,178.139191 99.0874453,178.183669 C98.9864987,178.228148 98.9360262,178.345697 98.9360262,178.536319 L98.9360262,178.641161 C98.9360262,178.806368 98.9730394,178.923917 99.0470669,178.993812 C99.1210944,179.063707 99.2859714,179.098654 99.5417029,179.098654 L100.490596,179.098654 C101.29144,179.098654 101.846638,179.425884 102.156207,180.080356 C102.304262,180.39806 102.378289,180.744353 102.378289,181.119244 L102.378289,181.43377 C102.378289,182.857086 101.695227,183.568733 100.329083,183.568733 C99.3465355,183.568733 98.7038516,183.554437 98.4010118,183.525843 C98.0981719,183.49725 97.7011211,183.403529 97.2098476,183.244676 L97.2098476,181.805482 C97.9501228,181.875377 98.8216156,181.910324 99.824352,181.910324 C100.039705,181.910324 100.192805,181.880143 100.283657,181.819779 C100.374509,181.759415 100.419934,181.65934 100.419934,181.51955 L100.419934,181.367052 C100.419934,181.220908 100.382921,181.114479 100.308893,181.047761 C100.234866,180.981043 100.093543,180.947684 99.8849197,180.947684 L98.9764046,180.947684 C98.6129968,180.947684 98.2983845,180.890499 98.0325584,180.776125 C97.7667323,180.661751 97.5698894,180.528317 97.4420237,180.375819 C97.3141579,180.223321 97.209848,180.042232 97.1290907,179.832547 C97.0281441,179.540259 96.9776715,179.238444 96.9776715,178.927094 Z M103.064722,183.492485 L103.064722,176.515729 L106.36566,176.515729 C107.079016,176.515729 107.634214,176.685698 108.031271,177.025642 C108.428328,177.365586 108.626853,177.942211 108.626853,178.755534 C108.626853,179.549796 108.509084,180.086708 108.273542,180.366288 C108.145676,180.506078 108.032954,180.606154 107.935372,180.666517 C107.837791,180.726881 107.70488,180.788833 107.536635,180.852374 L108.808556,183.492485 L106.577647,183.492485 L105.628754,181.023933 L105.023077,180.890498 L105.023077,183.492485 L103.064722,183.492485 Z M105.033172,179.498959 L106.113295,179.498959 C106.348837,179.498959 106.498572,179.44495 106.562505,179.336931 C106.626438,179.228911 106.658404,179.047822 106.658404,178.793659 C106.658404,178.539495 106.619708,178.358406 106.542316,178.250387 C106.464924,178.142367 106.321918,178.088358 106.113295,178.088358 L105.033172,178.088358 L105.033172,179.498959 Z M109.071016,181.462363 L109.071016,179.994576 L112.240724,179.994576 L112.240724,181.462363 L109.071016,181.462363 Z M112.614225,178.174138 L112.614225,176.515729 L117.469733,176.515729 L117.94418,177.259154 L115.632514,183.492485 L113.553024,183.492485 L115.551757,178.174138 L112.614225,178.174138 Z M121.477294,176.515729 L121.477294,183.492485 L119.518939,183.492485 L119.518939,178.269449 L118.327775,178.460071 L118.327775,177.287747 L119.539128,176.515729 L121.477294,176.515729 Z" id="path-3"></path>
    </defs>
    <g id="Page-1" stroke="none" stroke-width="1" fill="none" fill-rule="evenodd">
        <g id="Ambassador-Features" transform="translate(0.000000, -1396.000000)">
            <rect id="Rectangle" fill="#F4F4F4" x="0" y="80" width="1440" height="3258"></rect>
            <g id="Group-8" transform="translate(-429.000000, 1403.000000)">
                <g id="Group-7" transform="translate(0.000000, 161.000000)" fill-rule="nonzero">
                    <g id="M-Copy-7" transform="translate(645.000000, 118.000000)">
                        <g id="Group-Copy-18">
                            <path d="M0.0548705673,29.6367816 L0.0548705673,29.6367816 L0.217416271,40.7661611 C0.24730408,42.8125564 1.82279658,45.0950163 3.73631822,45.8601361 L65.0208223,70.3646872 C66.9326495,71.1291295 70.0363001,71.1345306 71.9492353,70.3752375 L130.302446,47.2133506 C132.216824,46.453485 133.777408,44.1768809 133.79133,42.1271343 L133.867739,30.8775026 C133.881692,28.8231608 132.349396,26.5385561 130.445328,25.7644316 L68.9997621,0.782901996 C67.0997643,0.0104320596 64.0052831,0.00767118993 62.097135,0.780431058 L3.45571393,24.528973 C1.54843691,25.3013801 0.0249563292,27.5885767 0.0548705673,29.6367816 L0.0548705673,29.6367816 Z" id="Rectangle-49" fill="#68C2D6" opacity="0.800000012"></path>
                            <path d="M62.1505212,0.626879878 C64.0542891,-0.146510939 67.1420052,-0.14294117 69.0498036,0.635945515 L130.344261,25.6603072 C132.250862,26.4387048 132.246449,27.6895558 130.331181,28.4554499 L71.9508453,51.8010964 C70.0370209,52.5664134 66.9391132,52.5665237 65.0287957,51.8002679 L3.65340218,27.1817178 C1.74428412,26.4159432 1.7408161,25.16785 3.64371487,24.3948122 L62.1505212,0.626879878 L62.1505212,0.626879878 Z" id="Rectangle-49-Copy-4" fill="#FFFFFF" opacity="0.480000019"></path>
                        </g>
                    </g>
                    <g id="M-Copy-3" transform="translate(370.000000, 0.000000)">
                        <g id="Group-Copy-18">
                            <path d="M0.140514805,76.0341139 L0.140514805,76.0341139 L0.556768527,104.586894 C0.633306456,109.836987 4.66789241,115.692711 9.56811732,117.65565 L166.507995,180.522863 C171.403881,182.484064 179.351837,182.49792 184.25056,180.54993 L333.683862,121.127366 C338.586278,119.177906 342.582686,113.337205 342.618339,108.078515 L342.81401,79.2172234 C342.849743,73.9467438 338.925774,68.0855171 334.049759,66.0994758 L176.697428,2.00856019 C171.831835,0.0267637836 163.907361,0.0196806839 159.020896,2.00222092 L8.84953432,62.9298672 C3.96530089,64.9115023 0.0639091938,70.7793785 0.140514805,76.0341139 L0.140514805,76.0341139 Z" id="Rectangle-49" fill="#68C2D6" opacity="0.800000012"></path>
                            <path d="M159.15761,1.60828044 C164.032857,-0.375878514 171.940007,-0.366720158 176.825576,1.63153862 L333.790944,65.8323413 C338.673445,67.8293454 338.662143,71.0384437 333.757448,73.0033696 L184.254683,132.897375 C179.353683,134.86082 171.420433,134.861103 166.528414,132.895249 L9.35578252,69.735569 C4.4668345,67.7709497 4.45795344,64.5689265 9.33097484,62.5856734 L159.15761,1.60828044 L159.15761,1.60828044 Z" id="Rectangle-49-Copy-4" fill="#FFFFFF" opacity="0.480000019"></path>
                        </g>
                    </g>
                    <g id="M-Copy-2" transform="translate(89.000000, 35.000000)" fill="#68C2D6" opacity="0.800000012">
                        <g id="Group-Copy-18">
                            <path d="M0.140514805,76.0341139 L0.140514805,76.0341139 L0.556768527,104.586894 C0.633306456,109.836987 4.66789241,115.692711 9.56811732,117.65565 L166.507995,180.522863 C171.403881,182.484064 179.351837,182.49792 184.25056,180.54993 L333.683862,121.127366 C338.586278,119.177906 342.582686,113.337205 342.618339,108.078515 L342.81401,79.2172234 C342.849743,73.9467438 338.925774,68.0855171 334.049759,66.0994758 L176.697428,2.00856019 C171.831835,0.0267637836 163.907361,0.0196806839 159.020896,2.00222092 L8.84953432,62.9298672 C3.96530089,64.9115023 0.0639091938,70.7793785 0.140514805,76.0341139 L0.140514805,76.0341139 Z" id="Rectangle-49"></path>
                        </g>
                    </g>
                </g>
                <g id="Group-2" transform="translate(462.000000, 0.000000)">
                    <g id="Group-17-Copy-2" transform="translate(0.000000, 54.050794)">
                        <g id="Group-16">
                            <ellipse id="Oval-8-Copy-10" fill="#000000" opacity="0.203824627" filter="url(#filter-1)" transform="translate(83.297437, 184.291148) scale(1, -1) translate(-83.297437, -184.291148) " cx="83.2974374" cy="184.291148" rx="40.1433433" ry="4.49490605"></ellipse>
                            <g id="Group-12-Copy-8" transform="translate(52.186346, 163.814354)" fill="#000000">
                                <path d="M13.5317369,1.01974676 C12.8680067,1.00821575 12.3204,1.54325355 12.3088474,2.20198839 L12.0641027,16.1575226 C12.0524497,16.8219877 12.5821712,17.37001 13.2447928,17.3815218 L18.8686591,17.4792255 C19.5323893,17.4907565 20.079996,16.9557187 20.0915485,16.2969838 L20.3362933,2.3414496 C20.3479463,1.67698456 19.8182248,1.12896222 19.1556032,1.11745046 L13.5317369,1.01974676 Z" id="Line-Copy-18" fill-rule="nonzero" transform="translate(16.200198, 9.249486) rotate(-3.000000) translate(-16.200198, -9.249486) "></path>
                                <path d="M0,14.4003705 C0,13.0671803 1.08262885,11.9864161 2.41864597,11.9864161 L12.6351078,11.9864161 C13.9708891,11.9864161 15.0561262,13.0763966 15.0589984,14.3959534 L15.0613793,15.4898286 C15.0625806,16.0417252 14.6127321,16.5005717 14.0635267,16.5145154 L2.42022061,16.8101251 C1.08356968,16.8440611 0,15.7873973 0,14.4576173 L0,14.4003705 Z" id="Rectangle-7-Copy-15"></path>
                            </g>
                            <g id="Group-12-Copy-10" transform="translate(106.919279, 172.814354) scale(-1, 1) translate(-106.919279, -172.814354) translate(96.419279, 163.814354)" fill="#000000">
                                <path d="M13.5317369,1.01974676 C12.8680067,1.00821575 12.3204,1.54325355 12.3088474,2.20198839 L12.0641027,16.1575226 C12.0524497,16.8219877 12.5821712,17.37001 13.2447928,17.3815218 L18.8686591,17.4792255 C19.5323893,17.4907565 20.079996,16.9557187 20.0915485,16.2969838 L20.3362933,2.3414496 C20.3479463,1.67698456 19.8182248,1.12896222 19.1556032,1.11745046 L13.5317369,1.01974676 Z" id="Line-Copy-18" fill-rule="nonzero" transform="translate(16.200198, 9.249486) rotate(-3.000000) translate(-16.200198, -9.249486) "></path>
                                <path d="M0,14.4003705 C0,13.0671803 1.08262885,11.9864161 2.41864597,11.9864161 L12.6351078,11.9864161 C13.9708891,11.9864161 15.0561262,13.0763966 15.0589984,14.3959534 L15.0613793,15.4898286 C15.0625806,16.0417252 14.6127321,16.5005717 14.0635267,16.5145154 L2.42022061,16.8101251 C1.08356968,16.8440611 0,15.7873973 0,14.4576173 L0,14.4003705 Z" id="Rectangle-7-Copy-15"></path>
                            </g>
                            <path d="M75.6469146,0.027667234 C79.0729425,4.22636367 88.3999128,9.68384309 100.024026,13.9146743 C112.047274,18.2907787 123.03078,20.0817979 128.153167,18.8316009 C135.182903,28.2709694 138.644812,40.5437111 137.039862,53.9619431 L126.036282,145.957706 C124.592763,158.026298 113.577835,167.809826 101.430789,167.809826 L65.1276408,167.809826 C52.9819221,167.809826 41.9662982,158.031571 40.5221476,145.957706 L29.5185683,53.9619431 C26.0237397,24.7433222 46.5682856,0.948590093 75.6469146,0.027667234 Z M86.4792152,0 L89.1585988,0 C101.485716,0 112.366534,4.07595228 120.662031,10.9453393 C119.675282,13.3781962 111.260016,12.5701638 101.785623,9.12176691 C94.0797675,6.31706469 88.0333402,2.62471452 86.4792152,-8.21565038e-15 Z" id="Combined-Shape" fill="#000000"></path>
                            <g id="Group" transform="translate(41.142582, 26.969436)">
                                <g id="Group-3" transform="translate(44.162022, 0.000000)">
                                    <path d="M19.7123424,27.8825852 C28.7803577,27.8825852 36.1314366,20.5781807 36.1314366,11.567741 C36.1314366,2.5573014 3.29324819,11.567741 3.29324819,11.567741 C3.29324819,11.567741 10.6443271,27.8825852 19.7123424,27.8825852 Z" id="Oval-3-Copy-4" fill="#FFFFFF" transform="translate(19.712342, 17.722843) rotate(-30.000000) translate(-19.712342, -17.722843) "></path>
                                    <ellipse id="Oval-3-Copy-5" fill="#000000" cx="11.8066941" cy="16.2788793" rx="5.27756599" ry="5.24405706"></ellipse>
                                </g>
                                <g id="Group-3-Copy" transform="translate(20.147688, 17.500000) scale(-1, 1) translate(-20.147688, -17.500000) translate(0.147688, 0.000000)">
                                    <path d="M19.7123424,27.8825852 C28.7803577,27.8825852 36.1314366,20.5781807 36.1314366,11.567741 C36.1314366,2.5573014 3.29324819,11.567741 3.29324819,11.567741 C3.29324819,11.567741 10.6443271,27.8825852 19.7123424,27.8825852 Z" id="Oval-3-Copy-4" fill="#FFFFFF" transform="translate(19.712342, 17.722843) rotate(-30.000000) translate(-19.712342, -17.722843) "></path>
                                    <ellipse id="Oval-3-Copy-5" fill="#000000" cx="11.8066941" cy="16.2788793" rx="5.27756599" ry="5.24405706"></ellipse>
                                </g>
                            </g>
                            <path d="M40.4165947,117.904356 L37.6685764,106.05731 L35.7128528,106.506703 L38.1377278,116.960638 L35.9756752,116.065295 L33.6542421,106.05731 L31.6985185,106.506703 L33.6968083,115.121577 L31.5347558,114.226234 L29.6399078,106.05731 L27.6841842,106.506703 L29.2558888,113.282516 L20.1520425,109.512456 C20.1520425,109.512456 13.7887234,91.40834 11.9624945,87.3065628 C8.8869044,80.3986742 26.4205278,68.4997282 35.5436906,76.8118169 C44.6668534,85.1239055 49.8200723,121.798498 49.8200723,121.798498 L40.4165947,117.904356 Z" id="Combined-Shape-Copy-13" fill="#000000" transform="translate(30.712605, 97.884739) scale(-1, 1) rotate(41.000000) translate(-30.712605, -97.884739) "></path>
                            <path d="M157.411063,98.3387603 L154.663045,86.4917143 L152.707321,86.9411071 L155.132196,97.3950423 L152.970143,96.4996991 L150.64871,86.4917143 L148.692987,86.9411071 L150.691276,95.5559811 L148.529224,94.6606379 L146.634376,86.4917143 L144.678652,86.9411071 L146.250357,93.7169199 L137.146511,89.9468604 C137.146511,89.9468604 130.783192,71.8427441 128.956963,67.7409669 C125.881373,60.8330784 143.414996,48.9341324 152.538159,57.2462211 C161.661322,65.5583097 166.81454,102.232902 166.81454,102.232902 L157.411063,98.3387603 Z" id="Combined-Shape-Copy-4" fill="#000000" transform="translate(147.707073, 78.319143) rotate(-111.000000) translate(-147.707073, -78.319143) "></path>
                            <polygon id="Rectangle-2-Copy-18" fill="#FFFFFF" points="32.1146747 65.9252888 83.8580329 111.557169 134.954504 63.2007254 124.265326 153.488272 44.5120871 154.400903"></polygon>
                            <g id="Rectangle-2-Copy-17">
                                <use fill="#000000" fill-rule="evenodd" xlink:href="#path-2"></use>
                                <path stroke="#000000" stroke-width="1" d="M38.1655431,123.39844 L43.0193291,161.590778 L61.6999107,175.635524 L75.4472913,173.679476 L84.4279781,168.862697 L94.776374,174.66941 L109.583601,175.646323 L125.157203,160.726086 L129.264098,116.842944 L133.540451,73.4161513 L85.1731359,148.577539 L32.9388877,71.0776584 L38.1655431,123.39844 Z"></path>
                            </g>
                            <path d="M74.6635249,60.5489949 C74.6635249,59.4483848 75.5593465,58.556164 76.6657637,58.556164 L90.7257905,58.556164 C91.8315965,58.556164 92.4425593,59.4008052 92.0860494,60.4556368 L89.0191793,69.5298087 C88.6646235,70.5788585 87.5399912,71.7410294 86.4991259,72.1286123 L76.5415983,75.8364574 C75.504367,76.2226871 74.6635249,75.6441758 74.6635249,74.5429573 L74.6635249,60.5489949 Z" id="Rectangle-4-Copy-7" fill="#F5A623" transform="translate(83.425640, 67.256202) rotate(-315.000000) translate(-83.425640, -67.256202) "></path>
                        </g>
                    </g>
                    <g id="Group" transform="translate(111.140141, 37.813722) rotate(20.000000) translate(-111.140141, -37.813722) translate(80.640141, 9.313722)" fill-rule="nonzero">
                        <path d="M47.971809,42.4526873 C48.0693616,43.8786763 48.2049997,45.2973696 48.3854052,46.6961653 C48.3854052,49.325291 40.1916577,51.4563155 30.0836081,51.4563155 C19.9755586,51.4563155 11.7818111,49.325291 11.7818111,46.6961653 L11.7824792,46.6961653 C11.9635528,45.2947165 12.099191,43.8740336 12.1960754,42.4467181 C4.79744817,43.8693908 0,46.1509732 0,48.7250492 C0,53.0368419 13.4615861,56.5321731 30.0675721,56.5321731 C46.6742262,56.5321731 60.1351442,53.0368419 60.1351442,48.7250492 C60.1351442,46.1549527 55.3517275,43.8753601 47.971809,42.4526873 Z" id="Shape" fill="#000000"></path>
                        <path d="M49.3215089,13.6430668 C48.7515614,16.429383 41.4651864,18.6459668 30.08294,18.6459668 C18.702698,18.6459668 11.4143185,16.4307095 10.844371,13.6450566 C10.844371,13.6450566 13.0687032,30.7748323 12.28561,47.4297205 C13.0927572,49.7895665 20.7506337,51.6406992 30.08294,51.6406992 C39.4179188,51.6406992 47.0764635,49.7895665 47.8809381,47.428394 C47.0998494,30.8026888 49.3068092,13.7040859 49.3215089,13.6430668 Z" id="Shape" fill="#FFFFFF"></path>
                        <path d="M51.3260137,7.01055986 C50.7560662,9.79687603 41.4651864,12.0134599 30.08294,12.0134599 C18.702698,12.0134599 9.40981373,9.79820254 8.83986619,7.01254961 C8.83986619,7.01254961 13.0687032,24.1423253 12.28561,40.7972136 C13.0927572,43.1570596 20.7506337,45.0081922 30.08294,45.0081922 C39.4179188,45.0081922 47.0764635,43.1570596 47.8809381,40.7958871 C47.0998494,24.1701819 51.311314,7.07157892 51.3260137,7.01055986 Z" id="Shape-Copy" fill="#000000"></path>
                        <path d="M51.3534086,5.78022982 C51.3534086,5.86910541 51.3453906,5.9566545 51.3273501,6.0442036 C50.7727704,8.83317277 41.4732044,11.0524096 30.0836081,11.0524096 C18.7033662,11.0524096 9.41048189,8.83715228 8.84053436,6.05149935 C8.82182565,5.96196051 8.81313946,5.87109516 8.81313946,5.78022982 C8.81313946,2.86855926 18.3365418,0.508050033 30.0836081,0.508050033 C41.8306745,0.508050033 51.3534086,2.86789601 51.3534086,5.78022982 Z" id="Shape" fill="#000000"></path>
                    </g>
                    <path d="M61.754831,137.493922 C60.8177009,136.91841 60.1471491,137.335545 60.2580631,138.435054 L62.8365014,163.995519 C62.9469894,165.090804 63.7677911,165.462788 64.6692159,164.826792 L104.050185,137.041715 C104.951877,136.40553 105.698789,136.786314 105.718577,137.898832 L106.161087,162.77767 C106.180822,163.887228 105.43449,164.318538 104.499997,163.744646 L61.754831,137.493922 Z" id="Path-8-Copy" stroke="#000000" fill="#F9634E" transform="translate(83.203768, 150.935613) rotate(1.000000) translate(-83.203768, -150.935613) "></path>
                    <g id="Group-2-Copy" transform="translate(81.665408, 174.390297)" fill="#000000">
                        <ellipse id="Oval-10-Copy" cx="1.79030083" cy="2.074454" rx="1.79030083" ry="2.074454"></ellipse>
                        <ellipse id="Oval-10-Copy-2" cx="1.79030083" cy="10.37227" rx="1.79030083" ry="2.074454"></ellipse>
                    </g>
                    <g id="SR-71-Copy-4" transform="translate(109.227483, 179.999341) rotate(-56.000000) translate(-109.227483, -179.999341) ">
                        <use fill="#333333" fill-rule="evenodd" xlink:href="#path-3"></use>
                        <use fill="black" fill-opacity="1" xlink:href="#path-3"></use>
                    </g>
                    <ellipse id="Oval-10" stroke="#FFFFFF" stroke-width="2" fill-opacity="0.200000018" fill="#FFFFFF" cx="64.8219173" cy="94.3339324" rx="18.8851255" ry="18.8667865"></ellipse>
                    <path d="M46.3749886,89.7447141 C46.3749886,89.7447141 41.2975281,101.145757 50.086535,122.701464 C58.875542,144.257171 56.9974101,153.993771 56.9974101,153.993771" id="Path-9" stroke="#FFFFFF" stroke-width="2"></path>
                </g>
            </g>
            <text id="Self-service-feature" font-family="SourceSansPro-Black, Source Sans Pro" font-size="48" font-weight="700" line-spacing="38" fill="#111111">
                <tspan x="439.92" y="1603.768">SELF-SERVICE FEATURES</tspan>
            </text>
        </g>
    </g>
</svg>